<svg width="1404" height="408" viewBox="0 0 1404 408" fill="none" xmlns="http://www.w3.org/2000/svg">
<path d="M1380.43 3.65738L1369.53 0.683105M1380.43 3.65738H1348.14M1380.43 3.65738L1391.69 6.72989M1380.43 3.65738H1403.31M1369.53 0.683105L1373.5 0.684265L1377.42 0.690705L1381.27 0.708812L1384.99 0.744474L1388.55 0.802346L1391.91 0.889457L1395.04 1.01046L1397.93 1.16478L1400.42 1.37816L1402.68 1.62543L1403.31 1.71204V3.65738M1369.53 0.683105H1337.76M1337.76 0.683105H1305.98M1337.76 0.683105L1348.14 3.65738M1305.98 0.683105H1274.2M1305.98 0.683105L1315.84 3.65738M1274.2 0.683105H1242.42M1274.2 0.683105L1283.54 3.65738M1242.42 0.683105H1210.64M1242.42 0.683105L1251.24 3.65738M1210.64 0.683105H1178.86M1210.64 0.683105L1218.95 3.65738M1178.86 0.683105H1147.08M1178.86 0.683105L1186.65 3.65738M1147.08 0.683105H1115.31M1147.08 0.683105L1154.35 3.65738M1115.31 0.683105H1083.53M1115.31 0.683105L1122.05 3.65738M1083.53 0.683105H1051.75M1083.53 0.683105L1089.75 3.65738M1051.75 0.683105H1019.97M1051.75 0.683105L1057.46 3.65738M1019.97 0.683105H988.191M1019.97 0.683105L1025.16 3.65738M988.191 0.683105H956.412M988.191 0.683105L989.344 1.4179L991.093 2.53035L992.862 3.65738M956.412 0.683105H924.634M956.412 0.683105L957.437 1.4179L960.564 3.65738M924.634 0.683105H892.855M924.634 0.683105L928.266 3.65738M892.855 0.683105H861.076M892.855 0.683105L894.011 1.78734L895.181 2.90446L895.574 3.28034L895.969 3.65738M861.076 0.683105H829.298M861.076 0.683105L862.04 1.78734L862.364 2.15796L862.689 2.53035L863.672 3.65738M829.298 0.683105H797.52M829.298 0.683105L831.374 3.65738M797.52 0.683105L797.712 1.04962L797.904 1.4179L798.879 3.28034L799.077 3.65738M797.52 0.683105H765.741M765.741 0.683105H733.962M765.741 0.683105L766.779 3.65738M733.962 0.683105H702.184M733.962 0.683105L734.155 1.78734L734.481 3.65738M702.184 0.683105H670.405M702.184 0.683105V3.65738M670.405 0.683105H638.626M670.405 0.683105L670.212 1.78734L669.886 3.65738M638.626 0.683105H606.848M638.626 0.683105L637.588 3.65738M606.848 0.683105L606.656 1.04962L606.464 1.4179L605.489 3.28034L605.291 3.65738M606.848 0.683105H575.069M575.069 0.683105H543.29M575.069 0.683105L573.257 3.28034L572.993 3.65738M543.29 0.683105H511.512M543.29 0.683105L542.328 1.78734L542.003 2.15796L541.352 2.90446L541.025 3.28034L540.695 3.65738M511.512 0.683105H479.734M511.512 0.683105L510.357 1.78734L509.186 2.90446L508.793 3.28034L508.398 3.65738M479.734 0.683105H447.955M479.734 0.683105L476.101 3.65738M447.955 0.683105H416.176M447.955 0.683105L446.93 1.4179L443.803 3.65738M416.176 0.683105H384.398M416.176 0.683105L411.506 3.65738M384.398 0.683105H352.619M384.398 0.683105L379.208 3.65738M352.619 0.683105H320.84M352.619 0.683105L346.91 3.65738M320.84 0.683105H289.062M320.84 0.683105L314.613 3.65738M289.062 0.683105H257.283M289.062 0.683105L282.315 3.65738M257.283 0.683105H225.505M257.283 0.683105L250.017 3.65738M225.505 0.683105H193.726M225.505 0.683105L217.72 3.65738M193.726 0.683105H161.948M193.726 0.683105L185.422 3.65738M161.948 0.683105H130.169M161.948 0.683105L153.124 3.65738M130.169 0.683105H98.3901M130.169 0.683105L120.827 3.65738M98.3901 0.683105H66.6118M98.3901 0.683105L88.5299 3.65738M66.6118 0.683105H34.8334M66.6118 0.683105L56.2322 3.65738M34.8334 0.683105L30.8676 0.684265L26.9428 0.690705L23.0998 0.708812L19.3773 0.744474L15.8162 0.802346L12.4544 0.889457L9.33223 1.01046L6.43426 1.16478L3.94747 1.37816L1.68343 1.62543L1.06118 1.71206V3.65738M34.8334 0.683105L23.9346 3.65738M88.5299 3.65738H120.827M88.5299 3.65738H56.2322M88.5299 3.65738L78.3409 6.72989M120.827 3.65738L111.175 6.72989M120.827 3.65738H153.124M217.72 3.65738H250.017M217.72 3.65738H185.422M217.72 3.65738L215.734 4.41616L209.677 6.72989M250.017 3.65738L242.51 6.72989M250.017 3.65738H282.315M346.91 3.65738H379.208M346.91 3.65738H314.613M346.91 3.65738L345.454 4.41616L344.721 4.7973L341.011 6.72989M379.208 3.65738L378.547 4.0356L377.884 4.41616L373.846 6.72989M379.208 3.65738H411.506M476.101 3.65738L475.638 4.0356L472.347 6.72989M476.101 3.65738H508.398M476.101 3.65738H443.803M508.398 3.65738L507.604 4.41616L507.204 4.7973L506.803 5.18078L505.181 6.72989M508.398 3.65738H540.695M605.291 3.65738H637.588M605.291 3.65738H572.993M605.291 3.65738L603.683 6.72989M637.588 3.65738L637.456 4.0356L637.324 4.41616L637.19 4.7973L636.787 5.95183L636.516 6.72989M637.588 3.65738H669.886M734.481 3.65738H766.779M734.481 3.65738H702.184M734.481 3.65738L735.017 6.72989M766.779 3.65738L766.911 4.0356L767.043 4.41616L767.177 4.7973L767.851 6.72989M766.779 3.65738H799.077M863.672 3.65738H895.969M863.672 3.65738H831.374M863.672 3.65738L864.334 4.41616L865.674 5.95183L866.013 6.33998L866.353 6.72989M895.969 3.65738L896.763 4.41616L897.164 4.7973L897.565 5.18078L899.187 6.72989M895.969 3.65738H928.266M992.862 3.65738H1025.16M992.862 3.65738H960.564M992.862 3.65738L994.054 4.41616L994.653 4.7973L997.688 6.72989M1025.16 3.65738L1025.82 4.0356L1026.48 4.41616L1030.52 6.72989M1025.16 3.65738H1057.46M1122.05 3.65738H1154.35M1122.05 3.65738H1089.75M1122.05 3.65738L1123.77 4.41616L1124.64 4.7973L1129.02 6.72989M1154.35 3.65738L1161.86 6.72989M1154.35 3.65738H1186.65M1251.24 3.65738H1283.54M1251.24 3.65738H1218.95M1251.24 3.65738L1260.36 6.72989M1283.54 3.65738L1293.19 6.72989M1283.54 3.65738H1315.84M0.947981 31.4712H1.06118M33.456 31.4712L45.787 27.5458M33.456 31.4712L20.6524 35.5468M33.456 31.4712H70.6074M33.456 31.4712H1.06118M45.787 27.5458H9.32055M45.787 27.5458L57.6717 23.7625M45.787 27.5458H82.2534M9.32055 27.5458L21.8655 23.7625M9.32055 27.5458H1.06118M9.32055 27.5458L1.06118 30.0361M45.6394 16.5922H80.1945M45.6394 16.5922L56.9144 13.1917M45.6394 16.5922H11.085M45.6394 16.5922L33.9635 20.1136M80.1945 16.5922L90.8764 13.1917M80.1945 16.5922L69.1336 20.1136M80.1945 16.5922H114.75M56.9144 13.1917H90.8764M56.9144 13.1917L67.8088 9.90643M56.9144 13.1917H22.953M90.8764 13.1917H124.838M90.8764 13.1917L101.197 9.90643M0.705509 93.4297H1.06118M30.6829 93.4297L46.5837 86.9217M30.6829 93.4297L13.9918 100.262M30.6829 93.4297H78.6477M30.6829 93.4297H1.06118M46.5837 86.9217L61.7492 80.7147M46.5837 86.9217H93.4122M46.5837 86.9217H1.06118M16.0038 80.7147H61.7492M16.0038 80.7147L31.5176 74.7884M16.0038 80.7147H1.06118M16.0038 80.7147L1.06118 86.4228M46.3449 69.1239H90.0672M46.3449 69.1239L60.531 63.7049M46.3449 69.1239H2.62264M46.3449 69.1239L31.5176 74.7884M90.0672 69.1239L103.308 63.7049M90.0672 69.1239L76.2281 74.7884M90.0672 69.1239H133.79M60.531 63.7049H103.308M60.531 63.7049H17.7545M60.531 63.7049L74.1167 58.5151M103.308 63.7049L115.988 58.5151M103.308 63.7049H146.085M99.6317 48.768H139.802M99.6317 48.768L111.627 44.1856M99.6317 48.768H59.4618M99.6317 48.768L87.1386 53.5404M139.802 48.768L150.998 44.1856M139.802 48.768L128.142 53.5404M139.802 48.768H179.972M111.627 44.1856H150.998M111.627 44.1856H72.2572M111.627 44.1856L123.155 39.782M150.998 44.1856L161.757 39.782M150.998 44.1856H190.369M144.91 31.4712H182.062M144.91 31.4712L155.186 27.5458M144.91 31.4712H107.759M144.91 31.4712L134.241 35.5468M182.062 31.4712L191.653 27.5458M182.062 31.4712L172.104 35.5468M182.062 31.4712H219.213M155.186 27.5458H191.653M155.186 27.5458H118.72M155.186 27.5458L165.09 23.7625M191.653 27.5458L200.896 23.7625M191.653 27.5458H228.119M183.859 16.5922H218.414M183.859 16.5922L192.76 13.1917M183.859 16.5922H149.305M183.859 16.5922L174.642 20.1136M218.414 16.5922L226.722 13.1917M218.414 16.5922L209.811 20.1136M218.414 16.5922H252.969M192.76 13.1917H226.722M192.76 13.1917L201.362 9.90643M192.76 13.1917H158.799M226.722 13.1917H260.684M226.722 13.1917L234.75 9.90643M25.6348 206.26L48.0138 193.436M25.6348 206.26L1.66955 219.992M25.6348 206.26H93.2895M25.6348 206.26H1.06118M48.0138 193.436L68.9605 181.434M48.0138 193.436H113.431M48.0138 193.436H1.06118M47.5595 159.595H107.071M47.5595 159.595L66.6833 149.634M47.5595 159.595L27.2488 170.176M47.5595 159.595H1.06118M107.071 159.595L124.456 149.634M107.071 159.595L88.6065 170.176M107.071 159.595H166.582M66.6833 149.634H124.456M66.6833 149.634H8.91083M66.6833 149.634L84.7219 140.237M124.456 149.634L140.855 140.237M124.456 149.634H182.229M117.891 122.958H171.009M117.891 122.958L133.175 114.997M117.891 122.958H64.7735M117.891 122.958L101.764 131.359M171.009 122.958L184.903 114.997M171.009 122.958L156.347 131.359M171.009 122.958H224.126M133.175 114.997H184.903M133.175 114.997H81.4463M133.175 114.997L147.678 107.441M184.903 114.997L198.088 107.441M184.903 114.997H236.63M174.576 93.4297H222.541M174.576 93.4297L187.07 86.9217M174.576 93.4297H126.612M174.576 93.4297L161.462 100.262M222.541 93.4297L233.898 86.9217M222.541 93.4297L210.618 100.262M222.541 93.4297H270.505M187.07 86.9217H233.898M187.07 86.9217H140.241M187.07 86.9217L198.985 80.7147M233.898 86.9217L244.73 80.7147M233.898 86.9217H280.727M221.236 69.1239H264.958M221.236 69.1239L231.638 63.7049M221.236 69.1239H177.513M221.236 69.1239L210.362 74.7884M264.958 69.1239L274.416 63.7049M264.958 69.1239L255.073 74.7884M264.958 69.1239H308.68M231.638 63.7049H274.416M231.638 63.7049H188.862M231.638 63.7049L241.601 58.5151M274.416 63.7049L283.473 58.5151M274.416 63.7049H317.192M260.312 48.768H300.482M260.312 48.768L269.109 44.1856M260.312 48.768H220.142M260.312 48.768L251.151 53.5404M300.482 48.768L301.5 48.1852L308.479 44.1856M300.482 48.768L292.154 53.5404M300.482 48.768H340.653M269.109 44.1856H308.479M269.109 44.1856H229.739M269.109 44.1856L277.563 39.782M308.479 44.1856L316.165 39.782M308.479 44.1856H347.85M293.516 31.4712H330.668M293.516 31.4712L301.052 27.5458M293.516 31.4712H256.365M293.516 31.4712L285.692 35.5468M330.668 31.4712L337.519 27.5458M330.668 31.4712L328.033 32.9817L323.555 35.5468M330.668 31.4712H367.82M301.052 27.5458H337.519M301.052 27.5458H264.586M301.052 27.5458L308.315 23.7625M337.519 27.5458L344.121 23.7625M337.519 27.5458H373.985M322.079 16.5922H356.634M322.079 16.5922L328.607 13.1917M322.079 16.5922H287.524M322.079 16.5922L315.32 20.1136M356.634 16.5922L361.104 14.0312L361.838 13.6103L362.569 13.1917M356.634 16.5922L350.489 20.1136M356.634 16.5922H391.189M328.607 13.1917H362.569M328.607 13.1917L334.914 9.90643M328.607 13.1917H294.645M362.569 13.1917H396.53M362.569 13.1917L368.302 9.90643M50.1471 352.339H143.296M50.1471 352.339L79.4773 328.33M50.1471 352.339L17.9173 378.722M50.1471 352.339L1.06118 352.339M143.296 352.339L168.436 328.33M143.296 352.339L115.67 378.722M143.296 352.339H236.443M79.4773 328.33H168.436M79.4773 328.33L106.283 306.387M79.4773 328.33H1.06118M168.436 328.33L191.412 306.387M168.436 328.33H257.394M153.519 267.72H231.9M153.519 267.72L174.436 250.598M153.519 267.72H75.1384M153.519 267.72L130.875 286.256M231.9 267.72L249.828 250.598M231.9 267.72L212.491 286.256M231.9 267.72H310.28M174.436 250.598H249.828M174.436 250.598H99.043M174.436 250.598L193.817 234.733M249.828 250.598L266.44 234.733M249.828 250.598H325.221M228.6 206.26H296.254M228.6 206.26L244.265 193.436M228.6 206.26H160.944M228.6 206.26L211.824 219.992M296.254 206.26L309.682 193.436M296.254 206.26L281.875 219.992M296.254 206.26H363.909M244.265 193.436H309.682M244.265 193.436H178.848M244.265 193.436L258.927 181.434M309.682 193.436L322.25 181.434M309.682 193.436H375.099M285.604 159.595H345.116M285.604 159.595L297.775 149.634M285.604 159.595H226.094M285.604 159.595L272.68 170.176M345.116 159.595L355.547 149.634M345.116 159.595L334.037 170.176M345.116 159.595H404.627M297.775 149.634H355.547M297.775 149.634H240.002M297.775 149.634L309.253 140.237M355.547 149.634L365.386 140.237M355.547 149.634H413.32M330.361 122.958H383.479M330.361 122.958L340.087 114.997M330.361 122.958H277.244M330.361 122.958L320.098 131.359M383.479 122.958L391.815 114.997M383.479 122.958L374.682 131.359M383.479 122.958H436.596M340.087 114.997H391.815M340.087 114.997H288.359M340.087 114.997L349.317 107.441M391.815 114.997L399.726 107.441M391.815 114.997H443.543M366.434 93.4297H414.398M366.434 93.4297L374.384 86.9217M366.434 93.4297H318.469M366.434 93.4297L358.088 100.262M414.398 93.4297L421.212 86.9217M414.398 93.4297L407.244 100.262M414.398 93.4297H462.362M374.384 86.9217H421.212M374.384 86.9217H327.555M374.384 86.9217L381.966 80.7147M421.212 86.9217L427.712 80.7147M421.212 86.9217H468.041M396.125 69.1239H439.848M396.125 69.1239L402.746 63.7049M396.125 69.1239H352.403M396.125 69.1239L389.206 74.7884M439.848 69.1239L445.522 63.7049M439.848 69.1239L433.917 74.7884M439.848 69.1239H483.571M402.746 63.7049H445.522M402.746 63.7049H359.969M402.746 63.7049L409.086 58.5151M445.522 63.7049L450.957 58.5151M445.522 63.7049H488.3M420.993 48.768H461.163M420.993 48.768L426.591 44.1856M420.993 48.768H380.823M420.993 48.768L415.162 53.5404M461.163 48.768L460.549 49.3538L456.166 53.5404M461.163 48.768L465.961 44.1856M461.163 48.768H501.333M426.591 44.1856H465.961M426.591 44.1856H387.22M426.591 44.1856L431.97 39.782M465.961 44.1856L470.572 39.782M465.961 44.1856H505.332M442.123 31.4712H479.274M442.123 31.4712L446.918 27.5458M442.123 31.4712H404.971M442.123 31.4712L437.144 35.5468M479.274 31.4712L483.385 27.5458M479.274 31.4712L477.693 32.9817L476.626 34.0006L475.007 35.5468M479.274 31.4712H516.426M446.918 27.5458H483.385M446.918 27.5458H410.452M446.918 27.5458L451.54 23.7625M483.385 27.5458L484.888 26.1107L485.878 25.1649L487.347 23.7625M483.385 27.5458H519.851M460.299 16.5922H494.854M460.299 16.5922L463.428 14.0312L464.453 13.1917M460.299 16.5922H425.744M460.299 16.5922L456.543 19.6664L455.998 20.1136M494.854 16.5922L497.536 14.0312L497.976 13.6103L498.415 13.1917M494.854 16.5922L493.026 18.3371L491.167 20.1136M494.854 16.5922H529.409M464.453 13.1917H498.415M464.453 13.1917L468.467 9.90643M464.453 13.1917H430.491M498.415 13.1917H532.376M498.415 13.1917L501.855 9.90643M422.74 352.339H515.887M422.74 352.339L435.309 328.33M422.74 352.339H329.592M422.74 352.339L408.927 378.722M515.887 352.339L524.268 328.33M515.887 352.339L506.679 378.722M515.887 352.339H609.036M435.309 328.33H524.268M435.309 328.33H346.352M435.309 328.33L446.798 306.387M524.268 328.33L531.926 306.387M524.268 328.33H613.226M467.042 267.72H545.422M467.042 267.72L476.006 250.598M467.042 267.72H388.661M467.042 267.72L457.337 286.256M545.422 267.72L551.398 250.598M545.422 267.72L538.953 286.256M545.422 267.72H623.803M476.006 250.598H551.398M476.006 250.598H400.613M476.006 250.598L484.312 234.733M551.398 250.598L556.936 234.733M551.398 250.598H626.791M499.219 206.26H566.874M499.219 206.26L505.933 193.436M499.219 206.26H431.564M499.219 206.26L492.03 219.992M566.874 206.26L571.35 193.436M566.874 206.26L562.081 219.992M566.874 206.26H634.529M505.933 193.436H571.35M505.933 193.436H440.516M505.933 193.436L512.217 181.434M571.35 193.436L575.539 181.434M571.35 193.436H636.767M523.65 159.595H583.161M523.65 159.595L528.865 149.634M523.65 159.595H464.139M523.65 159.595L518.111 170.176M583.161 159.595L586.638 149.634M583.161 159.595L579.468 170.176M583.161 159.595H642.672M528.865 149.634H586.638M528.865 149.634H471.093M528.865 149.634L533.785 140.237M586.638 149.634L589.918 140.237M586.638 149.634H644.411M542.831 122.958H595.949M542.831 122.958L546.999 114.997M542.831 122.958H489.714M542.831 122.958L538.433 131.359M595.949 122.958L598.727 114.997M595.949 122.958L593.017 131.359M595.949 122.958H649.066M546.999 114.997H598.727M546.999 114.997H495.271M546.999 114.997L550.955 107.441M598.727 114.997L601.364 107.441M598.727 114.997H650.455M558.291 93.4297H606.255M558.291 93.4297L561.698 86.9217M558.291 93.4297H510.327M558.291 93.4297L554.714 100.262M606.255 93.4297L608.527 86.9217M606.255 93.4297L603.87 100.262M606.255 93.4297H654.22M561.698 86.9217H608.527M561.698 86.9217H514.869M561.698 86.9217L562.935 84.56L564.948 80.7147M608.527 86.9217L610.693 80.7147M608.527 86.9217H655.355M571.016 69.1239H614.738M571.016 69.1239L573.853 63.7049M571.016 69.1239H527.293M571.016 69.1239L568.805 73.3486L568.05 74.7884M614.738 69.1239L615.458 67.0639L616.63 63.7049M614.738 69.1239L612.761 74.7884M614.738 69.1239H658.461M573.853 63.7049L574.199 63.0438L576.57 58.5151M573.853 63.7049H616.63M573.853 63.7049H531.076M616.63 63.7049L617.319 61.7326L617.545 61.082L617.771 60.4354L618.441 58.5151M616.63 63.7049H659.407M581.673 48.768H621.843M581.673 48.768L582.885 46.4537L583.184 45.8826L583.481 45.3138L583.778 44.7485L584.072 44.1856M581.673 48.768H541.503M581.673 48.768L579.175 53.5404M621.843 48.768L623.049 45.3138L623.247 44.7485L623.442 44.1856M621.843 48.768L620.178 53.5404M621.843 48.768H662.014M584.072 44.1856H623.442M584.072 44.1856H544.702M584.072 44.1856L585.524 41.413L585.81 40.8664L586.378 39.782M623.442 44.1856L624.41 41.413L624.602 40.8664L624.791 40.3227L624.98 39.782M623.442 44.1856H662.813M590.729 31.4712H627.881M590.729 31.4712L592.784 27.5458M590.729 31.4712H553.577M590.729 31.4712L590.203 32.4755L589.404 34.0006L588.595 35.5468M627.881 31.4712L627.705 31.9722L626.638 35.0289L626.458 35.5468M627.881 31.4712L629.251 27.5458M627.881 31.4712H665.032M592.784 27.5458H629.251M592.784 27.5458H556.318M592.784 27.5458L594.765 23.7625M629.251 27.5458L629.752 26.1107L629.917 25.6366L630.082 25.1649L630.571 23.7625M629.251 27.5458H665.717M598.519 16.5922H633.073M598.519 16.5922L599.86 14.0312L600.299 13.1917M598.519 16.5922H563.964M598.519 16.5922L597.835 17.8981L597.605 18.3371L597.374 18.7784L596.675 20.1136M633.073 16.5922L633.225 16.1607L633.523 15.3032L633.821 14.4532L634.26 13.1917M633.073 16.5922L632.464 18.3371L632.311 18.7784L632.001 19.6664L631.845 20.1136M633.073 16.5922H667.629M600.299 13.1917H634.26M600.299 13.1917L601.807 10.311L602.02 9.90643M600.299 13.1917H566.338M634.26 13.1917L634.406 12.7749L634.551 12.3599L634.696 11.9466L634.839 11.535L635.266 10.311L635.408 9.90643M634.26 13.1917H668.222M795.331 352.339H888.48M795.331 352.339L791.141 328.33M795.331 352.339H702.184M795.331 352.339L799.936 378.722M888.48 352.339L880.1 328.33M888.48 352.339L897.688 378.722M888.48 352.339H981.628M791.141 328.33H880.1M791.141 328.33H702.184M791.141 328.33L787.312 306.387M880.1 328.33L872.441 306.387M880.1 328.33H969.058M780.564 267.72H858.945M780.564 267.72L777.576 250.598M780.564 267.72H702.184M780.564 267.72L783.799 286.256M858.945 267.72L852.969 250.598M858.945 267.72L865.414 286.256M858.945 267.72H937.325M777.576 250.598H852.969M777.576 250.598H702.184M777.576 250.598L774.807 234.733M852.969 250.598L847.431 234.733M852.969 250.598H928.361M769.838 206.26H837.494M769.838 206.26L767.601 193.436M769.838 206.26H702.184M769.838 206.26L772.235 219.992M837.494 206.26L833.017 193.436M837.494 206.26L842.286 219.992M837.494 206.26H905.148M767.601 193.436H833.017M767.601 193.436H702.184M767.601 193.436L765.506 181.434M833.017 193.436L828.828 181.434M833.017 193.436H898.434M761.695 159.595H821.206M761.695 159.595L759.956 149.634M761.695 159.595H702.184M761.695 159.595L763.541 170.176M821.206 159.595L817.729 149.634M821.206 159.595L824.899 170.176M821.206 159.595H880.717M759.956 149.634H817.729M759.956 149.634H702.184M759.956 149.634L758.317 140.237M817.729 149.634L814.449 140.237M817.729 149.634H875.502M755.301 122.958H808.418M755.301 122.958L753.912 114.997M755.301 122.958H702.184M755.301 122.958L756.767 131.359M808.418 122.958L805.64 114.997M808.418 122.958L811.351 131.359M808.418 122.958H861.536M753.912 114.997H805.64M753.912 114.997H702.184M753.912 114.997L752.593 107.441M805.64 114.997L803.003 107.441M805.64 114.997H857.368M750.148 93.4297H798.112M750.148 93.4297L749.012 86.9217M750.148 93.4297H702.184M750.148 93.4297L751.34 100.262M798.112 93.4297L795.84 86.9217M798.112 93.4297L800.497 100.262M798.112 93.4297H846.077M749.012 86.9217H795.84M749.012 86.9217H702.184M749.012 86.9217L747.929 80.7147M795.84 86.9217L793.674 80.7147M795.84 86.9217H842.67M745.906 69.1239H789.629M745.906 69.1239L744.96 63.7049M745.906 69.1239H702.184M745.906 69.1239L746.895 74.7884M789.629 69.1239L787.969 64.3696L787.737 63.7049M789.629 69.1239L791.606 74.7884M789.629 69.1239H833.351M744.96 63.7049L744.846 63.0438L744.055 58.5151M744.96 63.7049H787.737M744.96 63.7049H702.184M787.737 63.7049L787.049 61.7326L786.822 61.082L786.596 60.4354L785.926 58.5151M787.737 63.7049H830.514M742.354 48.768H782.524M742.354 48.768L741.554 44.1856M742.354 48.768H702.184M742.354 48.768L742.662 50.5346L742.766 51.1297L742.87 51.7277L743.08 52.9331L743.187 53.5404M782.524 48.768L781.318 45.3138L780.924 44.1856M782.524 48.768L784.189 53.5404M782.524 48.768H822.694M741.554 44.1856H780.924M741.554 44.1856H702.184M741.554 44.1856L740.786 39.782M780.924 44.1856L779.957 41.413L779.766 40.8664L779.577 40.3227L779.387 39.782M780.924 44.1856H820.295M739.335 31.4712H776.487M739.335 31.4712L738.65 27.5458M739.335 31.4712H702.184M739.335 31.4712L740.046 35.5468M776.487 31.4712L776.662 31.9722L777.729 35.0289L777.909 35.5468M776.487 31.4712L775.116 27.5458M776.487 31.4712H813.638M738.65 27.5458H775.116M738.65 27.5458H702.184M738.65 27.5458L737.99 23.7625M775.116 27.5458L774.615 26.1107L774.45 25.6366L774.285 25.1649L773.796 23.7625M775.116 27.5458H811.583M736.739 16.5922H771.294M736.739 16.5922L736.145 13.1917M736.739 16.5922H702.184M736.739 16.5922L737.353 20.1136M771.294 16.5922L771.143 16.1607L770.843 15.3032L770.695 14.877L770.399 14.0312L770.253 13.6103L770.106 13.1917M771.294 16.5922L771.903 18.3371L772.056 18.7784L772.367 19.6664L772.522 20.1136M771.294 16.5922H805.848M736.145 13.1917L736.073 12.7749L736 12.3599L735.928 11.9466L735.572 9.90643M736.145 13.1917H770.106M736.145 13.1917H702.184M770.106 13.1917H804.068M770.106 13.1917L769.816 12.3599L769.672 11.9466L769.529 11.535L769.101 10.311L768.96 9.90643M1167.92 352.339H1261.07M1167.92 352.339L1146.97 328.33M1167.92 352.339H1074.78M1167.92 352.339L1190.95 378.722M1261.07 352.339L1235.93 328.33M1261.07 352.339L1288.7 378.722M1261.07 352.339H1354.22M1146.97 328.33H1235.93M1146.97 328.33H1058.02M1146.97 328.33L1127.83 306.387M1235.93 328.33L1212.96 306.387M1235.93 328.33H1324.89M1094.09 267.72H1172.47M1094.09 267.72L1079.15 250.598M1094.09 267.72H1015.71M1094.09 267.72L1110.26 286.256M1172.47 267.72L1154.54 250.598M1172.47 267.72L1191.88 286.256M1172.47 267.72H1250.85M1079.15 250.598H1154.54M1079.15 250.598H1003.75M1079.15 250.598L1065.3 234.733M1154.54 250.598L1137.93 234.733M1154.54 250.598H1229.93M1040.46 206.26H1108.11M1040.46 206.26L1029.27 193.436M1040.46 206.26H972.803M1040.46 206.26L1052.44 219.992M1108.11 206.26L1094.69 193.436M1108.11 206.26L1122.49 219.992M1108.11 206.26H1175.77M1029.27 193.436H1094.69M1029.27 193.436H963.851M1029.27 193.436L1018.8 181.434M1094.69 193.436L1082.12 181.434M1094.69 193.436H1160.1M999.74 159.595H1059.25M999.74 159.595L991.048 149.634M999.74 159.595H940.229M999.74 159.595L1008.97 170.176M1059.25 159.595L1048.82 149.634M1059.25 159.595L1070.33 170.176M1059.25 159.595H1118.76M991.048 149.634H1048.82M991.048 149.634H933.274M991.048 149.634L982.848 140.237M1048.82 149.634L1038.98 140.237M1048.82 149.634H1106.59M967.771 122.958H1020.89M967.771 122.958L960.824 114.997M967.771 122.958H914.654M967.771 122.958L975.101 131.359M1020.89 122.958L1012.55 114.997M1020.89 122.958L1029.69 131.359M1020.89 122.958H1074.01M960.824 114.997H1012.55M960.824 114.997H909.096M960.824 114.997L954.231 107.441M1012.55 114.997L1004.64 107.441M1012.55 114.997H1064.28M942.005 93.4297H989.97M942.005 93.4297L936.326 86.9217M942.005 93.4297H894.041M942.005 93.4297L947.967 100.262M989.97 93.4297L983.155 86.9217M989.97 93.4297L997.123 100.262M989.97 93.4297H1037.93M936.326 86.9217H983.155M936.326 86.9217H889.498M936.326 86.9217L930.91 80.7147M983.155 86.9217L976.656 80.7147M983.155 86.9217H1029.98M920.797 69.1239L921.402 69.8184L922.012 70.5163L925.739 74.7884M920.797 69.1239H964.519M920.797 69.1239L916.068 63.7049M920.797 69.1239H877.074M964.519 69.1239L958.845 63.7049M964.519 69.1239L970.45 74.7884M964.519 69.1239H1008.24M916.068 63.7049H958.845M916.068 63.7049H873.291M916.068 63.7049L911.539 58.5151M958.845 63.7049L953.41 58.5151M958.845 63.7049H1001.62M903.034 48.768H943.205M903.034 48.768L899.035 44.1856M903.034 48.768H862.864M903.034 48.768L907.198 53.5404M943.205 48.768L940.183 45.8826L938.406 44.1856M943.205 48.768L948.202 53.5404M943.205 48.768H983.375M899.035 44.1856H938.406M899.035 44.1856H859.665M899.035 44.1856L895.666 40.3227L895.193 39.782M938.406 44.1856L933.795 39.782M938.406 44.1856H977.777M887.942 31.4712H925.093M887.942 31.4712L887.073 30.4757L884.516 27.5458M887.942 31.4712H850.79M887.942 31.4712L888.818 32.4755L890.596 34.5133L891.498 35.5468M925.093 31.4712L920.983 27.5458M925.093 31.4712L926.674 32.9817L927.741 34.0006L929.36 35.5468M925.093 31.4712H962.245M884.516 27.5458H920.983M884.516 27.5458H848.049M884.516 27.5458L882.029 24.6949L881.215 23.7625M920.983 27.5458L919.48 26.1107L918.489 25.1649L917.021 23.7625M920.983 27.5458H957.449M874.958 16.5922H909.514M874.958 16.5922L873.092 14.4532L871.991 13.1917M874.958 16.5922H840.403M874.958 16.5922L878.031 20.1136M909.514 16.5922L906.831 14.0312L906.391 13.6103L905.952 13.1917M909.514 16.5922L911.341 18.3371L913.2 20.1136M909.514 16.5922H944.068M871.991 13.1917H905.952M871.991 13.1917L870.546 11.535L869.832 10.7172L869.477 10.311L869.125 9.90643M871.991 13.1917H838.03M905.952 13.1917H939.915M905.952 13.1917L902.513 9.90643M1380.72 250.598H1305.32M1380.72 250.598L1355.8 234.733M1380.72 250.598H1403.31M1380.72 250.598L1403.31 264.98M1311.08 206.26H1378.73M1311.08 206.26L1290.94 193.436M1311.08 206.26H1243.42M1311.08 206.26L1332.65 219.992M1378.73 206.26L1356.35 193.436M1378.73 206.26L1402.7 219.992M1378.73 206.26H1403.31M1290.94 193.436H1356.35M1290.94 193.436H1225.52M1290.94 193.436L1272.08 181.434M1356.35 193.436L1335.41 181.434M1356.35 193.436H1403.31M1237.78 159.595H1297.3M1237.78 159.595L1222.14 149.634M1237.78 159.595H1178.27M1237.78 159.595L1254.4 170.176M1297.3 159.595L1279.91 149.634M1297.3 159.595L1315.76 170.176M1297.3 159.595H1356.81M1222.14 149.634H1279.91M1222.14 149.634H1164.37M1222.14 149.634L1207.38 140.237M1279.91 149.634L1263.51 140.237M1279.91 149.634H1337.68M1180.24 122.958H1233.36M1180.24 122.958L1167.74 114.997M1180.24 122.958H1127.12M1180.24 122.958L1193.44 131.359M1233.36 122.958L1219.46 114.997M1233.36 122.958L1248.02 131.359M1233.36 122.958H1286.48M1167.74 114.997H1219.46M1167.74 114.997H1116.01M1167.74 114.997L1155.87 107.441M1219.46 114.997L1206.28 107.441M1219.46 114.997H1271.19M1133.86 93.4297H1181.83M1133.86 93.4297L1123.64 86.9217M1133.86 93.4297H1085.9M1133.86 93.4297L1144.59 100.262M1181.83 93.4297L1170.47 86.9217M1181.83 93.4297L1193.75 100.262M1181.83 93.4297H1229.79M1123.64 86.9217H1170.47M1123.64 86.9217H1076.81M1123.64 86.9217L1113.89 80.7147M1170.47 86.9217L1159.64 80.7147M1170.47 86.9217H1217.3M1095.69 69.1239H1139.41M1095.69 69.1239L1087.18 63.7049M1095.69 69.1239H1051.96M1095.69 69.1239L1104.58 74.7884M1139.41 69.1239L1129.95 63.7049M1139.41 69.1239L1149.29 74.7884M1139.41 69.1239H1183.13M1087.18 63.7049H1129.95M1087.18 63.7049H1044.4M1087.18 63.7049L1079.02 58.5151M1129.95 63.7049L1120.89 58.5151M1129.95 63.7049H1172.73M1063.71 48.768H1103.88M1063.71 48.768L1056.52 44.1856M1063.71 48.768H1023.54M1063.71 48.768L1071.21 53.5404M1103.88 48.768L1095.89 44.1856M1103.88 48.768L1112.21 53.5404M1103.88 48.768H1144.06M1056.52 44.1856H1095.89M1056.52 44.1856H1017.15M1056.52 44.1856L1049.6 39.782M1095.89 44.1856L1088.2 39.782M1095.89 44.1856H1135.26M1036.55 31.4712H1073.7M1036.55 31.4712L1030.38 27.5458M1036.55 31.4712H999.396M1036.55 31.4712L1038.13 32.4755L1038.92 32.9817L1042.95 35.5468M1073.7 31.4712L1066.85 27.5458M1073.7 31.4712L1080.81 35.5468M1073.7 31.4712H1110.85M1030.38 27.5458H1066.85M1030.38 27.5458H993.916M1030.38 27.5458L1024.44 23.7625M1066.85 27.5458L1060.25 23.7625M1066.85 27.5458H1103.31M1013.18 16.5922H1047.73M1013.18 16.5922L1007.84 13.1917M1013.18 16.5922H978.623M1013.18 16.5922L1018.71 20.1136M1047.73 16.5922L1043.26 14.0312L1042.53 13.6103L1041.8 13.1917M1047.73 16.5922L1053.88 20.1136M1047.73 16.5922H1082.29M1007.84 13.1917H1041.8M1007.84 13.1917L1003.31 10.311L1002.68 9.90643M1007.84 13.1917H973.876M1041.8 13.1917H1075.76M1041.8 13.1917L1036.07 9.90643M1392.71 122.958L1374.65 114.997M1392.71 122.958H1339.59M1392.71 122.958L1403.31 127.628M1392.71 122.958H1403.31M1374.65 114.997H1322.92M1374.65 114.997L1357.51 107.441M1374.65 114.997H1403.31M1325.72 93.4297H1373.68M1325.72 93.4297L1310.95 86.9217M1325.72 93.4297H1277.76M1325.72 93.4297L1341.22 100.262M1373.68 93.4297L1357.78 86.9217M1373.68 93.4297L1390.38 100.262M1373.68 93.4297H1403.31M1310.95 86.9217H1357.78M1310.95 86.9217H1264.13M1310.95 86.9217L1296.87 80.7147M1357.78 86.9217L1342.62 80.7147M1357.78 86.9217H1403.31M1270.58 69.1239H1314.3M1270.58 69.1239L1258.28 63.7049M1270.58 69.1239H1226.85M1270.58 69.1239L1283.43 74.7884M1314.3 69.1239L1301.06 63.7049M1314.3 69.1239L1328.14 74.7884M1314.3 69.1239H1358.02M1258.28 63.7049H1301.06M1258.28 63.7049H1215.51M1258.28 63.7049L1246.51 58.5151M1301.06 63.7049L1288.38 58.5151M1301.06 63.7049H1343.84M1224.39 48.768H1264.56M1224.39 48.768L1214 44.1856M1224.39 48.768H1184.23M1224.39 48.768L1235.22 53.5404M1264.56 48.768L1253.37 44.1856M1264.56 48.768L1276.23 53.5404M1264.56 48.768H1304.74M1214 44.1856H1253.37M1214 44.1856H1174.63M1214 44.1856L1204.01 39.782M1253.37 44.1856L1242.61 39.782M1253.37 44.1856H1292.74M1185.15 31.4712H1222.31M1185.15 31.4712L1176.25 27.5458M1185.15 31.4712H1148M1185.15 31.4712L1194.4 35.5468M1222.31 31.4712L1212.71 27.5458M1222.31 31.4712L1232.26 35.5468M1222.31 31.4712H1259.46M1176.25 27.5458H1212.71M1176.25 27.5458H1139.78M1176.25 27.5458L1167.66 23.7625M1212.71 27.5458L1203.47 23.7625M1212.71 27.5458H1249.18M1151.4 16.5922H1185.95M1151.4 16.5922L1143.68 13.1917M1151.4 16.5922H1116.84M1151.4 16.5922L1159.39 20.1136M1185.95 16.5922L1177.64 13.1917M1185.95 16.5922L1194.56 20.1136M1185.95 16.5922H1220.51M1143.68 13.1917H1177.64M1143.68 13.1917L1136.23 9.90643M1143.68 13.1917H1109.72M1177.64 13.1917H1211.61M1177.64 13.1917L1169.62 9.90643M1385.08 48.768L1371.48 44.1856M1385.08 48.768H1344.91M1385.08 48.768L1399.23 53.5404M1385.08 48.768H1403.31M1371.48 44.1856H1332.11M1371.48 44.1856L1358.42 39.782M1371.48 44.1856H1403.31M1333.76 31.4712H1370.91M1333.76 31.4712L1322.11 27.5458M1333.76 31.4712H1296.61M1333.76 31.4712L1345.85 35.5468M1370.91 31.4712L1358.58 27.5458M1370.91 31.4712L1383.71 35.5468M1370.91 31.4712H1403.31M1322.11 27.5458H1358.58M1322.11 27.5458H1285.65M1322.11 27.5458L1310.89 23.7625M1358.58 27.5458L1346.7 23.7625M1358.58 27.5458H1395.05M1289.62 16.5922H1324.17M1289.62 16.5922L1279.53 13.1917M1289.62 16.5922H1255.06M1289.62 16.5922L1300.06 20.1136M1324.17 16.5922L1313.49 13.1917M1324.17 16.5922L1335.23 20.1136M1324.17 16.5922H1358.73M1279.53 13.1917H1313.49M1279.53 13.1917L1269.78 9.90643M1279.53 13.1917H1245.57M1313.49 13.1917H1347.45M1313.49 13.1917L1303.17 9.90643M1335.23 20.1136L1346.7 23.7625M1335.23 20.1136H1370.4M1335.23 20.1136H1300.06M1358.73 16.5922L1347.45 13.1917M1358.73 16.5922L1370.4 20.1136M1358.73 16.5922H1393.28M1347.45 13.1917H1381.41M1347.45 13.1917L1336.56 9.90643M1303.17 9.90643H1269.78M1303.17 9.90643H1336.56M1303.17 9.90643L1293.19 6.72989M1370.4 20.1136L1382.5 23.7625M1370.4 20.1136H1403.31M1393.28 16.5922L1381.41 13.1917M1393.28 16.5922L1403.31 19.4639M1393.28 16.5922H1403.31M1381.41 13.1917L1369.95 9.90643M1381.41 13.1917H1403.31M1336.56 9.90643H1369.95M1336.56 9.90643L1326.03 6.72989M1369.95 9.90643L1358.86 6.72989M1369.95 9.90643H1403.31M1346.7 23.7625H1382.5M1346.7 23.7625H1310.89M1395.05 27.5458L1382.5 23.7625M1395.05 27.5458L1403.31 30.0361M1395.05 27.5458H1403.31M1382.5 23.7625H1403.31M1310.89 23.7625H1275.08M1310.89 23.7625L1300.06 20.1136M1300.06 20.1136H1264.9M1383.71 35.5468L1397.02 39.782M1383.71 35.5468H1345.85M1383.71 35.5468H1403.31M1403.42 31.4712H1403.31M1397.02 39.782H1358.42M1397.02 39.782L1403.31 41.7836M1397.02 39.782H1403.31M1358.42 39.782H1319.81M1358.42 39.782L1345.85 35.5468M1345.85 35.5468H1307.99M1194.56 20.1136L1203.47 23.7625M1194.56 20.1136H1229.73M1194.56 20.1136H1159.39M1220.51 16.5922L1211.61 13.1917M1220.51 16.5922L1229.73 20.1136M1220.51 16.5922H1255.06M1211.61 13.1917H1245.57M1211.61 13.1917L1203.01 9.90643M1169.62 9.90643H1203.01M1169.62 9.90643L1161.86 6.72989M1169.62 9.90643H1136.23M1229.73 20.1136L1239.28 23.7625M1229.73 20.1136H1264.9M1255.06 16.5922L1245.57 13.1917M1255.06 16.5922L1264.9 20.1136M1245.57 13.1917L1236.39 9.90643M1203.01 9.90643H1236.39M1203.01 9.90643L1194.69 6.72989M1264.9 20.1136L1275.08 23.7625M1269.78 9.90643H1236.39M1269.78 9.90643L1260.36 6.72989M1236.39 9.90643L1227.52 6.72989M1203.47 23.7625H1239.28M1203.47 23.7625H1167.66M1249.18 27.5458L1239.28 23.7625M1249.18 27.5458L1259.46 31.4712M1249.18 27.5458H1285.65M1239.28 23.7625H1275.08M1167.66 23.7625H1131.86M1167.66 23.7625L1159.39 20.1136M1275.08 23.7625L1285.65 27.5458M1159.39 20.1136H1124.22M1259.46 31.4712L1270.13 35.5468M1259.46 31.4712H1296.61M1285.65 27.5458L1296.61 31.4712M1296.61 31.4712L1307.99 35.5468M1232.26 35.5468L1242.61 39.782M1232.26 35.5468H1270.13M1232.26 35.5468H1194.4M1270.13 35.5468L1281.21 39.782M1270.13 35.5468H1307.99M1307.99 35.5468L1319.81 39.782M1242.61 39.782H1281.21M1242.61 39.782H1204.01M1292.74 44.1856L1281.21 39.782M1292.74 44.1856L1304.74 48.768M1292.74 44.1856H1332.11M1281.21 39.782H1319.81M1204.01 39.782H1165.41M1204.01 39.782L1194.4 35.5468M1319.81 39.782L1332.11 44.1856M1194.4 35.5468H1156.54M1304.74 48.768L1317.23 53.5404M1304.74 48.768H1344.91M1332.11 44.1856L1344.91 48.768M1344.91 48.768L1358.23 53.5404M1276.23 53.5404L1288.38 58.5151M1276.23 53.5404H1317.23M1276.23 53.5404H1235.22M1317.23 53.5404L1330.25 58.5151M1317.23 53.5404H1358.23M1358.23 53.5404L1372.12 58.5151M1358.23 53.5404H1399.23M1399.23 53.5404H1403.31M1399.23 53.5404L1403.31 54.9126M1288.38 58.5151H1330.25M1288.38 58.5151H1246.51M1343.84 63.7049L1330.25 58.5151M1343.84 63.7049L1358.02 69.1239M1343.84 63.7049H1386.61M1330.25 58.5151H1372.12M1246.51 58.5151H1204.64M1246.51 58.5151L1235.22 53.5404M1372.12 58.5151L1386.61 63.7049M1372.12 58.5151H1403.31M1235.22 53.5404H1194.22M1358.02 69.1239L1372.85 74.7884M1358.02 69.1239H1401.74M1386.61 63.7049L1401.74 69.1239M1386.61 63.7049H1403.31M1403.53 58.5151H1403.31M1401.74 69.1239L1403.31 69.6831M1401.74 69.1239H1403.31M1328.14 74.7884L1342.62 80.7147M1328.14 74.7884H1372.85M1328.14 74.7884H1283.43M1372.85 74.7884L1388.36 80.7147M1372.85 74.7884H1403.31M1403.68 69.8184L1403.31 69.6831M1342.62 80.7147H1388.36M1342.62 80.7147H1296.87M1388.36 80.7147H1403.31M1388.36 80.7147L1403.31 86.4228M1296.87 80.7147H1251.13M1296.87 80.7147L1283.43 74.7884M1283.43 74.7884H1238.72M1390.38 100.262H1341.22M1390.38 100.262L1403.31 105.554M1390.38 100.262H1403.31M1403.66 93.4297H1403.31M1341.22 100.262H1292.06M1341.22 100.262L1357.51 107.441M1403.45 105.612L1403.31 105.554M1053.88 20.1136L1060.25 23.7625M1053.88 20.1136H1089.05M1053.88 20.1136H1018.71M1082.29 16.5922L1075.76 13.1917M1082.29 16.5922L1089.05 20.1136M1082.29 16.5922H1116.84M1075.76 13.1917H1109.72M1075.76 13.1917L1069.45 9.90643M1036.07 9.90643H1069.45M1036.07 9.90643L1033.96 8.70281L1030.52 6.72989M1036.07 9.90643H1002.68M1089.05 20.1136L1096.05 23.7625M1089.05 20.1136H1124.22M1116.84 16.5922L1109.72 13.1917M1116.84 16.5922L1124.22 20.1136M1109.72 13.1917L1102.84 9.90643M1069.45 9.90643H1102.84M1069.45 9.90643L1063.36 6.72989M1124.22 20.1136L1131.86 23.7625M1136.23 9.90643L1129.02 6.72989M1136.23 9.90643H1102.84M1102.84 9.90643L1102 9.50308L1100.32 8.70281L1096.19 6.72989M1060.25 23.7625H1096.05M1060.25 23.7625H1024.44M1103.31 27.5458L1096.05 23.7625M1103.31 27.5458L1110.85 31.4712M1103.31 27.5458H1139.78M1096.05 23.7625H1131.86M1024.44 23.7625H988.634M1024.44 23.7625L1018.71 20.1136M1131.86 23.7625L1139.78 27.5458M1018.71 20.1136H983.539M1110.85 31.4712L1118.68 35.5468M1110.85 31.4712H1148M1139.78 27.5458L1140.79 28.0281L1148 31.4712M1148 31.4712L1156.54 35.5468M1080.81 35.5468L1081.72 36.0677L1088.2 39.782M1080.81 35.5468H1118.68M1080.81 35.5468H1042.95M1118.68 35.5468L1126.8 39.782M1118.68 35.5468H1156.54M1156.54 35.5468L1165.41 39.782M1088.2 39.782H1126.8M1088.2 39.782H1049.6M1135.26 44.1856L1126.8 39.782M1135.26 44.1856L1144.06 48.768M1135.26 44.1856H1174.63M1126.8 39.782H1165.41M1049.6 39.782H1011M1049.6 39.782L1042.95 35.5468M1165.41 39.782L1174.63 44.1856M1042.95 35.5468H1005.09M1144.06 48.768L1153.22 53.5404M1144.06 48.768H1184.23M1174.63 44.1856L1184.23 48.768M1184.23 48.768L1194.22 53.5404M1112.21 53.5404L1120.89 58.5151M1112.21 53.5404H1153.22M1112.21 53.5404H1071.21M1153.22 53.5404L1162.77 58.5151M1153.22 53.5404H1194.22M1194.22 53.5404L1204.64 58.5151M1120.89 58.5151H1162.77M1120.89 58.5151H1079.02M1172.73 63.7049L1162.77 58.5151M1172.73 63.7049L1183.13 69.1239M1172.73 63.7049H1215.51M1162.77 58.5151H1204.64M1079.02 58.5151H1037.15M1079.02 58.5151L1071.21 53.5404M1204.64 58.5151L1215.51 63.7049M1071.21 53.5404H1030.21M1183.13 69.1239L1194.01 74.7884M1183.13 69.1239H1226.85M1215.51 63.7049L1226.85 69.1239M1226.85 69.1239L1238.72 74.7884M1149.29 74.7884L1159.64 80.7147M1149.29 74.7884H1194.01M1149.29 74.7884H1104.58M1194.01 74.7884L1205.38 80.7147M1194.01 74.7884H1238.72M1238.72 74.7884L1251.13 80.7147M1159.64 80.7147H1205.38M1159.64 80.7147H1113.89M1217.3 86.9217L1205.38 80.7147M1217.3 86.9217L1229.79 93.4297M1217.3 86.9217H1264.13M1205.38 80.7147H1251.13M1113.89 80.7147H1068.15M1113.89 80.7147L1104.58 74.7884M1251.13 80.7147L1264.13 86.9217M1104.58 74.7884H1059.87M1229.79 93.4297L1242.91 100.262M1229.79 93.4297H1277.76M1264.13 86.9217L1277.76 93.4297M1277.76 93.4297L1292.06 100.262M1193.75 100.262L1206.28 107.441M1193.75 100.262H1242.91M1193.75 100.262H1144.59M1242.91 100.262L1256.69 107.441M1242.91 100.262H1292.06M1292.06 100.262L1307.1 107.441M1206.28 107.441H1256.69M1206.28 107.441H1155.87M1271.19 114.997L1256.69 107.441M1271.19 114.997L1286.48 122.958M1271.19 114.997H1322.92M1256.69 107.441H1307.1M1155.87 107.441H1105.46M1155.87 107.441L1144.59 100.262M1307.1 107.441L1322.92 114.997M1307.1 107.441H1357.51M1144.59 100.262H1095.44M1286.48 122.958L1302.6 131.359M1286.48 122.958H1339.59M1322.92 114.997L1339.59 122.958M1357.51 107.441H1403.31M1339.59 122.958L1357.19 131.359M1248.02 131.359L1263.51 140.237M1248.02 131.359H1302.6M1248.02 131.359H1193.44M1302.6 131.359L1319.65 140.237M1302.6 131.359H1357.19M1357.19 131.359L1375.78 140.237M1357.19 131.359H1403.31M1263.51 140.237H1319.65M1263.51 140.237H1207.38M1337.68 149.634L1319.65 140.237M1337.68 149.634L1356.81 159.595M1337.68 149.634H1395.46M1319.65 140.237H1375.78M1207.38 140.237H1151.25M1207.38 140.237L1193.44 131.359M1375.78 140.237L1395.46 149.634M1375.78 140.237H1403.31M1193.44 131.359H1138.85M1356.81 159.595L1377.12 170.176M1356.81 159.595H1403.31M1395.46 149.634H1403.31M1395.46 149.634L1403.31 153.382M1315.76 170.176L1335.41 181.434M1315.76 170.176H1377.12M1315.76 170.176H1254.4M1377.12 170.176L1398.73 181.434M1377.12 170.176H1403.31M1335.41 181.434H1398.73M1335.41 181.434H1272.08M1398.73 181.434L1403.31 183.818M1398.73 181.434H1403.31M1272.08 181.434H1208.76M1272.08 181.434L1254.4 170.176M1254.4 170.176H1193.05M1402.7 219.992H1332.65M1402.7 219.992H1403.31M1402.7 219.992L1403.31 220.34M1332.65 219.992H1262.6M1332.65 219.992L1355.8 234.733M913.2 20.1136L914.617 21.4663L915.093 21.9217L917.021 23.7625M913.2 20.1136H948.37M913.2 20.1136H878.031M944.068 16.5922L940.939 14.0312L939.915 13.1917M944.068 16.5922L947.824 19.6664L948.37 20.1136M944.068 16.5922H978.623M939.915 13.1917H973.876M939.915 13.1917L935.901 9.90643M902.513 9.90643H935.901M902.513 9.90643L901.252 8.70281L899.187 6.72989M902.513 9.90643H869.125M948.37 20.1136L949.47 21.0132L952.828 23.7625M948.37 20.1136H983.539M978.623 16.5922L973.876 13.1917M978.623 16.5922L983.539 20.1136M973.876 13.1917L970.421 10.7172L969.289 9.90643M935.901 9.90643H969.289M935.901 9.90643L932.02 6.72989M983.539 20.1136L988.634 23.7625M1002.68 9.90643L1002.04 9.50308L997.688 6.72989M1002.68 9.90643H969.289M969.289 9.90643L967.608 8.70281L964.854 6.72989M917.021 23.7625H952.828M917.021 23.7625H881.215M957.449 27.5458L952.828 23.7625M957.449 27.5458L962.245 31.4712M957.449 27.5458H993.916M952.828 23.7625H988.634M881.215 23.7625H845.408M881.215 23.7625L878.031 20.1136M988.634 23.7625L993.916 27.5458M878.031 20.1136H842.862M962.245 31.4712L965.334 34.0006L965.961 34.5133L967.223 35.5468M962.245 31.4712H999.396M993.916 27.5458L999.396 31.4712M999.396 31.4712L1005.09 35.5468M929.36 35.5468L933.795 39.782M929.36 35.5468H967.223M929.36 35.5468H891.498M967.223 35.5468L972.397 39.782M967.223 35.5468H1005.09M1005.09 35.5468L1011 39.782M933.795 39.782H972.397M933.795 39.782H895.193M977.777 44.1856L974.389 41.413L973.723 40.8664L972.397 39.782M977.777 44.1856L983.375 48.768M977.777 44.1856H1017.15M972.397 39.782H1011M895.193 39.782H856.591M895.193 39.782L891.498 35.5468M1011 39.782L1017.15 44.1856M891.498 35.5468H853.635M983.375 48.768L989.205 53.5404M983.375 48.768H1023.54M1017.15 44.1856L1023.54 48.768M1023.54 48.768L1030.21 53.5404M948.202 53.5404L950.779 56.0015L951.431 56.6252L953.41 58.5151M948.202 53.5404H989.205M948.202 53.5404H907.198M989.205 53.5404L995.281 58.5151M989.205 53.5404H1030.21M1030.21 53.5404L1037.15 58.5151M953.41 58.5151H995.281M953.41 58.5151H911.539M1001.62 63.7049L995.281 58.5151M1001.62 63.7049L1008.24 69.1239M1001.62 63.7049H1044.4M995.281 58.5151H1037.15M911.539 58.5151H869.668M911.539 58.5151L910.437 57.2519L907.198 53.5404M1037.15 58.5151L1044.4 63.7049M907.198 53.5404H866.196M1008.24 69.1239L1015.16 74.7884M1008.24 69.1239H1051.96M1044.4 63.7049L1051.96 69.1239M1051.96 69.1239L1059.87 74.7884M970.45 74.7884L976.656 80.7147M970.45 74.7884H1015.16M970.45 74.7884H925.739M1015.16 74.7884L1022.4 80.7147M1015.16 74.7884H1059.87M1059.87 74.7884L1068.15 80.7147M976.656 80.7147H1022.4M976.656 80.7147H930.91M1029.98 86.9217L1022.4 80.7147M1029.98 86.9217L1037.93 93.4297M1029.98 86.9217H1076.81M1022.4 80.7147H1068.15M930.91 80.7147H885.165M930.91 80.7147L925.739 74.7884M1068.15 80.7147L1076.81 86.9217M925.739 74.7884H881.028M1037.93 93.4297L1046.28 100.262M1037.93 93.4297H1085.9M1076.81 86.9217L1085.9 93.4297M1085.9 93.4297L1095.44 100.262M997.123 100.262L1004.64 107.441M997.123 100.262H1046.28M997.123 100.262H947.967M1046.28 100.262L1055.05 107.441M1046.28 100.262H1095.44M1095.44 100.262L1105.46 107.441M1004.64 107.441H1055.05M1004.64 107.441H954.231M1064.28 114.997L1055.05 107.441M1064.28 114.997L1074.01 122.958M1064.28 114.997H1116.01M1055.05 107.441H1105.46M954.231 107.441H903.822M954.231 107.441L947.967 100.262M1105.46 107.441L1116.01 114.997M947.967 100.262H898.81M1074.01 122.958L1084.27 131.359M1074.01 122.958H1127.12M1116.01 114.997L1127.12 122.958M1127.12 122.958L1138.85 131.359M1029.69 131.359L1038.98 140.237M1029.69 131.359H1084.27M1029.69 131.359H975.101M1084.27 131.359L1095.11 140.237M1084.27 131.359H1138.85M1138.85 131.359L1151.25 140.237M1038.98 140.237H1095.11M1038.98 140.237H982.848M1106.59 149.634L1095.11 140.237M1106.59 149.634L1118.76 159.595M1106.59 149.634H1164.37M1095.11 140.237H1151.25M982.848 140.237H926.715M982.848 140.237L975.101 131.359M1151.25 140.237L1164.37 149.634M975.101 131.359H920.518M1118.76 159.595L1131.69 170.176M1118.76 159.595H1178.27M1164.37 149.634L1178.27 159.595M1178.27 159.595L1193.05 170.176M1070.33 170.176L1082.12 181.434M1070.33 170.176H1131.69M1070.33 170.176H1008.97M1131.69 170.176L1145.44 181.434M1131.69 170.176H1193.05M1193.05 170.176L1208.76 181.434M1082.12 181.434H1145.44M1082.12 181.434H1018.8M1160.1 193.436L1145.44 181.434M1160.1 193.436L1175.77 206.26M1160.1 193.436H1225.52M1145.44 181.434H1208.76M1018.8 181.434H955.473M1018.8 181.434L1008.97 170.176M1208.76 181.434L1225.52 193.436M1008.97 170.176H947.614M1175.77 206.26L1192.54 219.992M1175.77 206.26H1243.42M1225.52 193.436L1243.42 206.26M1243.42 206.26L1262.6 219.992M1122.49 219.992L1137.93 234.733M1122.49 219.992H1192.54M1122.49 219.992H1052.44M1192.54 219.992L1210.55 234.733M1192.54 219.992H1262.6M1262.6 219.992L1283.18 234.733M1137.93 234.733H1210.55M1137.93 234.733H1065.3M1229.93 250.598L1210.55 234.733M1229.93 250.598L1250.85 267.72M1229.93 250.598H1305.32M1210.55 234.733H1283.18M1065.3 234.733H992.679M1065.3 234.733L1052.44 219.992M1283.18 234.733L1305.32 250.598M1283.18 234.733H1355.8M1052.44 219.992H982.389M1250.85 267.72L1273.49 286.256M1250.85 267.72H1329.23M1305.32 250.598L1329.23 267.72M1355.8 234.733H1403.31M1329.23 267.72L1355.11 286.256M1329.23 267.72H1403.31M1191.88 286.256L1212.96 306.387M1191.88 286.256H1273.49M1191.88 286.256H1110.26M1273.49 286.256L1298.08 306.387M1273.49 286.256H1355.11M1355.11 286.256L1383.21 306.387M1355.11 286.256H1403.31M1212.96 306.387H1298.08M1212.96 306.387H1127.83M1324.89 328.33L1298.08 306.387M1324.89 328.33L1354.22 352.339M1324.89 328.33H1403.31M1298.08 306.387H1383.21M1127.83 306.387H1042.7M1127.83 306.387L1110.26 286.256M1383.21 306.387H1403.31M1383.21 306.387L1403.31 320.779M1110.26 286.256H1028.65M1354.22 352.339L1386.45 378.722M1354.22 352.339H1403.31M1288.7 378.722L1319.2 407.85M1288.7 378.722H1386.45M1288.7 378.722H1190.95M1386.45 378.722L1403.31 392.521M1386.45 378.722H1403.31M1319.2 407.85H1216.36M1319.2 407.85L1403.31 407.849M1216.36 407.85H1113.53M1216.36 407.85L1190.95 378.722M1190.95 378.722H1093.19M772.522 20.1136L772.679 20.5625L772.836 21.0132L772.995 21.4663L773.153 21.9217L773.635 23.2989L773.796 23.7625M772.522 20.1136H807.692M772.522 20.1136H737.353M805.848 16.5922L804.507 14.0312L804.068 13.1917M805.848 16.5922L806.993 18.7784L807.692 20.1136M805.848 16.5922H840.403M804.068 13.1917H838.03M804.068 13.1917L802.773 10.7172L802.348 9.90643M768.96 9.90643L768.82 9.50308L768.263 7.90837L767.851 6.72989M768.96 9.90643H802.348M768.96 9.90643H735.572M807.692 20.1136L807.927 20.5625L808.163 21.0132L808.4 21.4663L808.639 21.9217L809.602 23.7625M807.692 20.1136H842.862M840.403 16.5922L838.615 14.0312L838.03 13.1917M840.403 16.5922L842.862 20.1136M838.03 13.1917L836.873 11.535L836.018 10.311L835.736 9.90643M802.348 9.90643L802.137 9.50308L801.718 8.70281L801.302 7.90837L801.096 7.5138L800.685 6.72989M802.348 9.90643H835.736M842.862 20.1136L844.763 22.8377L845.408 23.7625M869.125 9.90643L867.037 7.5138L866.353 6.72989M869.125 9.90643H835.736M835.736 9.90643L833.792 7.12097L833.518 6.72989M773.796 23.7625H809.602M773.796 23.7625H737.99M811.583 27.5458L809.602 23.7625M811.583 27.5458L813.638 31.4712M811.583 27.5458H848.049M809.602 23.7625H845.408M737.99 23.7625H702.184M737.99 23.7625L737.353 20.1136M845.408 23.7625L848.049 27.5458M737.353 20.1136H702.184M813.638 31.4712L814.165 32.4755L814.963 34.0006L815.772 35.5468M813.638 31.4712H850.79M848.049 27.5458L848.387 28.0281L850.79 31.4712M850.79 31.4712L851.139 31.9722L851.491 32.4755L851.844 32.9817L853.635 35.5468M777.909 35.5468L779.387 39.782M777.909 35.5468H815.772M777.909 35.5468H740.046M815.772 35.5468L817.989 39.782M815.772 35.5468H853.635M853.635 35.5468L855.841 38.7076L856.216 39.2436L856.591 39.782M779.387 39.782H817.989M779.387 39.782H740.786M820.295 44.1856L820.589 44.7485L820.886 45.3138L821.183 45.8826L822.694 48.768M820.295 44.1856L819.131 41.9619L818.843 41.413L818.558 40.8664L817.989 39.782M820.295 44.1856H859.665M817.989 39.782H856.591M740.786 39.782H702.184M740.786 39.782L740.046 35.5468M856.591 39.782L859.665 44.1856M740.046 35.5468H702.184M822.694 48.768L824.875 52.9331L825.193 53.5404M822.694 48.768H862.864M859.665 44.1856L860.453 45.3138L862.864 48.768M862.864 48.768L864.098 50.5346L866.196 53.5404M784.189 53.5404L785.049 56.0015L785.266 56.6252L785.926 58.5151M784.189 53.5404H825.193M784.189 53.5404H743.187M825.193 53.5404L827.797 58.5151M825.193 53.5404H866.196M866.196 53.5404L869.668 58.5151M785.926 58.5151H827.797M785.926 58.5151H744.055M830.514 63.7049L827.797 58.5151M830.514 63.7049L833.351 69.1239M830.514 63.7049H873.291M827.797 58.5151H869.668M744.055 58.5151H702.184M744.055 58.5151L743.834 57.2519L743.4 54.7645L743.187 53.5404M869.668 58.5151L873.291 63.7049M743.187 53.5404H702.184M833.351 69.1239L835.563 73.3486L836.317 74.7884M833.351 69.1239H877.074M873.291 63.7049L877.074 69.1239M877.074 69.1239L879.029 71.9246L881.028 74.7884M791.606 74.7884L793.674 80.7147M791.606 74.7884H836.317M791.606 74.7884H746.895M836.317 74.7884L839.42 80.7147M836.317 74.7884H881.028M881.028 74.7884L885.165 80.7147M793.674 80.7147H839.42M793.674 80.7147H747.929M842.67 86.9217L841.842 85.3428L839.42 80.7147M842.67 86.9217L846.077 93.4297M842.67 86.9217H889.498M839.42 80.7147H885.165M747.929 80.7147H702.184M747.929 80.7147L746.895 74.7884M885.165 80.7147L889.498 86.9217M746.895 74.7884H702.184M846.077 93.4297L849.653 100.262M846.077 93.4297H894.041M889.498 86.9217L894.041 93.4297M894.041 93.4297L898.81 100.262M800.497 100.262L803.003 107.441M800.497 100.262H849.653M800.497 100.262H751.34M849.653 100.262L853.412 107.441M849.653 100.262H898.81M898.81 100.262L903.822 107.441M803.003 107.441H853.412M803.003 107.441H752.593M857.368 114.997L853.412 107.441M857.368 114.997L861.536 122.958M857.368 114.997H909.096M853.412 107.441H903.822M752.593 107.441H702.184M752.593 107.441L751.493 101.14L751.34 100.262M903.822 107.441L909.096 114.997M751.34 100.262H702.184M861.536 122.958L865.934 131.359M861.536 122.958H914.654M909.096 114.997L913.236 120.928L914.654 122.958M914.654 122.958L920.518 131.359M811.351 131.359L814.449 140.237M811.351 131.359H865.934M811.351 131.359H756.767M865.934 131.359L870.582 140.237M865.934 131.359H920.518M920.518 131.359L926.715 140.237M814.449 140.237H870.582M814.449 140.237H758.317M875.502 149.634L870.582 140.237M875.502 149.634L880.717 159.595M875.502 149.634H933.274M870.582 140.237H926.715M758.317 140.237H702.184M758.317 140.237L756.767 131.359M926.715 140.237L933.274 149.634M756.767 131.359H702.184M880.717 159.595L886.257 170.176M880.717 159.595H940.229M933.274 149.634L940.229 159.595M940.229 159.595L947.614 170.176M824.899 170.176L828.828 181.434M824.899 170.176H886.257M824.899 170.176H763.541M886.257 170.176L892.151 181.434M886.257 170.176H947.614M947.614 170.176L955.473 181.434M828.828 181.434H892.151M828.828 181.434H765.506M898.434 193.436L892.151 181.434M898.434 193.436L905.148 206.26M898.434 193.436H963.851M892.151 181.434H955.473M765.506 181.434H702.184M765.506 181.434L763.541 170.176M955.473 181.434L963.851 193.436M763.541 170.176H702.184M905.148 206.26L912.338 219.992M905.148 206.26H972.803M963.851 193.436L972.803 206.26M972.803 206.26L982.389 219.992M842.286 219.992L847.431 234.733M842.286 219.992H912.338M842.286 219.992H772.235M912.338 219.992L920.055 234.733M912.338 219.992H982.389M982.389 219.992L992.679 234.733M847.431 234.733H920.055M847.431 234.733H774.807M928.361 250.598L920.055 234.733M928.361 250.598L937.325 267.72M928.361 250.598H1003.75M920.055 234.733H992.679M774.807 234.733H702.184M774.807 234.733L772.235 219.992M992.679 234.733L1003.75 250.598M772.235 219.992H702.184M937.325 267.72L947.03 286.256M937.325 267.72H1015.71M1003.75 250.598L1015.71 267.72M1015.71 267.72L1028.65 286.256M865.414 286.256L872.441 306.387M865.414 286.256H947.03M865.414 286.256H783.799M947.03 286.256L957.57 306.387M947.03 286.256H1028.65M1028.65 286.256L1042.7 306.387M872.441 306.387H957.57M872.441 306.387H787.312M969.058 328.33L957.57 306.387M969.058 328.33L981.628 352.339M969.058 328.33H1058.02M957.57 306.387H1042.7M787.312 306.387H702.184M787.312 306.387L783.799 286.256M1042.7 306.387L1058.02 328.33M783.799 286.256H702.184M981.628 352.339L995.44 378.722M981.628 352.339H1074.78M1058.02 328.33L1074.78 352.339M1074.78 352.339L1093.19 378.722M897.688 378.722L907.854 407.85M897.688 378.722H995.44M897.688 378.722H799.936M995.44 378.722L1010.69 407.85M995.44 378.722H1093.19M1093.19 378.722L1113.53 407.85M1010.69 407.85H907.854M1010.69 407.85H1113.53M907.854 407.85H805.019M805.019 407.85H702.184M805.019 407.85L799.936 378.722M799.936 378.722H702.184M631.845 20.1136L631.688 20.5625L631.531 21.0132L631.372 21.4663L631.214 21.9217L630.894 22.8377L630.733 23.2989L630.571 23.7625M631.845 20.1136H667.014M631.845 20.1136H596.675M667.629 16.5922L668.222 13.1917M667.629 16.5922L667.014 20.1136M667.629 16.5922H702.184M668.222 13.1917L668.295 12.7749L668.368 12.3599L668.439 11.9466L668.796 9.90643M668.222 13.1917H702.184M635.408 9.90643L635.548 9.50308L636.104 7.90837L636.516 6.72989M635.408 9.90643H668.796M635.408 9.90643H602.02M667.014 20.1136L666.935 20.5625L666.857 21.0132L666.778 21.4663L666.377 23.7625M667.014 20.1136H702.184M702.184 16.5922V13.1917M702.184 16.5922V20.1136M702.184 13.1917V9.90643M668.796 9.90643H702.184M668.796 9.90643L669.005 8.70281L669.075 8.30472L669.35 6.72989M702.184 20.1136V23.7625M735.572 9.90643L735.362 8.70281L735.292 8.30472L735.223 7.90837L735.154 7.5138L735.086 7.12097L735.017 6.72989M735.572 9.90643H702.184M702.184 9.90643V6.72989M630.571 23.7625H666.377M630.571 23.7625H594.765M665.717 27.5458L665.633 28.0281L665.549 28.5133L665.032 31.4712M665.717 27.5458L666.377 23.7625M665.717 27.5458H702.184M666.377 23.7625H702.184M594.765 23.7625H558.959M594.765 23.7625L595.249 22.8377L595.49 22.3788L595.728 21.9217L595.967 21.4663L596.204 21.0132L596.441 20.5625L596.675 20.1136M702.184 23.7625V27.5458M596.675 20.1136H561.506M665.032 31.4712L664.321 35.5468M665.032 31.4712H702.184M702.184 27.5458V31.4712M702.184 31.4712V35.5468M626.458 35.5468L624.98 39.782M626.458 35.5468H664.321M626.458 35.5468H588.595M664.321 35.5468L663.582 39.782M664.321 35.5468H702.184M702.184 35.5468V39.782M624.98 39.782H663.582M624.98 39.782H586.378M662.813 44.1856L663.582 39.782M662.813 44.1856L662.014 48.768M662.813 44.1856H702.184M663.582 39.782H702.184M586.378 39.782H547.776M586.378 39.782L588.595 35.5468M702.184 39.782V44.1856M588.595 35.5468H550.732M662.014 48.768L661.706 50.5346L661.392 52.3286L661.18 53.5404M662.014 48.768H702.184M702.184 44.1856V48.768M702.184 48.768V53.5404M620.178 53.5404L619.318 56.0015L619.101 56.6252L618.441 58.5151M620.178 53.5404H661.18M620.178 53.5404H579.175M661.18 53.5404L660.967 54.7645L660.533 57.2519L660.313 58.5151M661.18 53.5404H702.184M702.184 53.5404V58.5151M618.441 58.5151H660.313M618.441 58.5151H576.57M659.407 63.7049L659.522 63.0438L660.313 58.5151M659.407 63.7049L658.461 69.1239M659.407 63.7049H702.184M660.313 58.5151H702.184M576.57 58.5151H534.699M576.57 58.5151L579.175 53.5404M702.184 58.5151V63.7049M579.175 53.5404H538.171M658.461 69.1239L657.473 74.7884M658.461 69.1239H702.184M702.184 63.7049V69.1239M702.184 69.1239V74.7884M612.761 74.7884L610.693 80.7147M612.761 74.7884H657.473M612.761 74.7884H568.05M657.473 74.7884L656.438 80.7147M657.473 74.7884H702.184M702.184 74.7884V80.7147M610.693 80.7147H656.438M610.693 80.7147H564.948M655.355 86.9217L656.438 80.7147M655.355 86.9217L654.22 93.4297M655.355 86.9217H702.184M656.438 80.7147H702.184M564.948 80.7147H519.202M564.948 80.7147L568.05 74.7884M702.184 80.7147V86.9217M568.05 74.7884H523.339M654.22 93.4297L653.027 100.262M654.22 93.4297H702.184M702.184 86.9217V93.4297M702.184 93.4297V100.262M603.87 100.262L601.364 107.441M603.87 100.262H653.027M603.87 100.262H554.714M653.027 100.262L651.774 107.441M653.027 100.262H702.184M702.184 100.262V107.441M601.364 107.441H651.774M601.364 107.441H550.955M650.455 114.997L651.774 107.441M650.455 114.997L649.066 122.958M650.455 114.997H702.184M651.774 107.441H702.184M550.955 107.441H500.545M550.955 107.441L554.714 100.262M702.184 107.441V114.997M554.714 100.262H505.558M649.066 122.958L647.6 131.359M649.066 122.958H702.184M702.184 114.997V122.958M702.184 122.958V131.359M593.017 131.359L589.918 140.237M593.017 131.359H647.6M593.017 131.359H538.433M647.6 131.359L646.051 140.237M647.6 131.359H702.184M702.184 131.359V140.237M589.918 140.237H646.051M589.918 140.237H533.785M644.411 149.634L646.051 140.237M644.411 149.634L642.672 159.595M644.411 149.634H702.184M646.051 140.237H702.184M533.785 140.237H477.652M533.785 140.237L538.433 131.359M702.184 140.237V149.634M538.433 131.359H483.849M642.672 159.595L640.826 170.176M642.672 159.595H702.184M702.184 149.634V159.595M702.184 159.595V170.176M579.468 170.176L575.539 181.434M579.468 170.176H640.826M579.468 170.176H518.111M640.826 170.176L638.861 181.434M640.826 170.176H702.184M702.184 170.176V181.434M575.539 181.434H638.861M575.539 181.434H512.217M636.767 193.436L638.861 181.434M636.767 193.436L634.529 206.26M636.767 193.436H702.184M638.861 181.434H702.184M512.217 181.434H448.894M512.217 181.434L518.111 170.176M702.184 181.434V193.436M518.111 170.176H456.753M634.529 206.26L632.132 219.992M634.529 206.26H702.184M702.184 193.436V206.26M702.184 206.26V219.992M562.081 219.992L556.936 234.733M562.081 219.992H632.132M562.081 219.992H492.03M632.132 219.992L629.56 234.733M632.132 219.992H702.184M702.184 219.992V234.733M556.936 234.733H629.56M556.936 234.733H484.312M626.791 250.598L629.56 234.733M626.791 250.598L623.803 267.72M626.791 250.598H702.184M629.56 234.733H702.184M484.312 234.733H411.688M484.312 234.733L492.03 219.992M702.184 234.733V250.598M492.03 219.992H421.978M623.803 267.72L620.568 286.256M623.803 267.72H702.184M702.184 250.598V267.72M702.184 267.72V286.256M538.953 286.256L531.926 306.387M538.953 286.256H620.568M538.953 286.256H457.337M620.568 286.256L617.055 306.387M620.568 286.256H702.184M702.184 286.256V306.387M531.926 306.387H617.055M531.926 306.387H446.798M613.226 328.33L617.055 306.387M613.226 328.33L609.036 352.339M613.226 328.33H702.184M617.055 306.387H702.184M446.798 306.387H361.669M446.798 306.387L457.337 286.256M702.184 306.387V328.33M457.337 286.256H375.722M609.036 352.339L604.431 378.722M609.036 352.339H702.184M702.184 328.33V352.339M702.184 352.339V378.722M506.679 378.722L496.513 407.85M506.679 378.722H604.431M506.679 378.722H408.927M604.431 378.722L599.348 407.85M604.431 378.722H702.184M702.184 378.722V407.85M599.348 407.85H496.513M599.348 407.85H702.184M496.513 407.85H393.677M393.677 407.85H290.842M393.677 407.85L408.927 378.722M408.927 378.722H311.174M491.167 20.1136L489.274 21.9217L487.347 23.7625M491.167 20.1136H526.336M491.167 20.1136H455.998M529.409 16.5922L532.376 13.1917M529.409 16.5922L526.336 20.1136M529.409 16.5922H563.964M532.376 13.1917H566.338M532.376 13.1917L534.535 10.7172L535.243 9.90643M501.855 9.90643H535.243M501.855 9.90643L503.115 8.70281L505.181 6.72989M501.855 9.90643H468.467M526.336 20.1136L523.153 23.7625M526.336 20.1136H561.506M563.964 16.5922L566.338 13.1917M563.964 16.5922L561.506 20.1136M566.338 13.1917L567.494 11.535L568.349 10.311L568.631 9.90643M535.243 9.90643H568.631M535.243 9.90643L537.33 7.5138L538.014 6.72989M561.506 20.1136L559.604 22.8377L558.959 23.7625M602.02 9.90643L602.23 9.50308L602.649 8.70281L603.271 7.5138L603.683 6.72989M602.02 9.90643H568.631M568.631 9.90643L568.912 9.50308L569.471 8.70281L570.848 6.72989M487.347 23.7625H523.153M487.347 23.7625H451.54M519.851 27.5458L520.271 27.0653L520.688 26.5865L522.338 24.6949L523.153 23.7625M519.851 27.5458L517.294 30.4757L516.426 31.4712M519.851 27.5458H556.318M523.153 23.7625H558.959M451.54 23.7625H415.734M451.54 23.7625L454.898 21.0132L455.998 20.1136M558.959 23.7625L556.318 27.5458M455.998 20.1136H420.828M516.426 31.4712L515.989 31.9722L515.549 32.4755L514.219 34.0006L513.771 34.5133L512.87 35.5468M516.426 31.4712H553.577M556.318 27.5458L555.981 28.0281L553.577 31.4712M553.577 31.4712L553.228 31.9722L552.876 32.4755L552.523 32.9817L550.732 35.5468M475.007 35.5468L470.572 39.782M475.007 35.5468H512.87M475.007 35.5468H437.144M512.87 35.5468L509.174 39.782M512.87 35.5468H550.732M550.732 35.5468L547.776 39.782M470.572 39.782H509.174M470.572 39.782H431.97M505.332 44.1856L509.174 39.782M505.332 44.1856L501.333 48.768M505.332 44.1856H544.702M509.174 39.782H547.776M431.97 39.782H393.368M431.97 39.782L437.144 35.5468M547.776 39.782L544.702 44.1856M437.144 35.5468H399.28M501.333 48.768L497.169 53.5404M501.333 48.768H541.503M544.702 44.1856L543.914 45.3138L541.503 48.768M541.503 48.768L540.27 50.5346L539.017 52.3286L538.171 53.5404M456.166 53.5404L453.588 56.0015L450.957 58.5151M456.166 53.5404H497.169M456.166 53.5404H415.162M497.169 53.5404L492.828 58.5151M497.169 53.5404H538.171M538.171 53.5404L534.699 58.5151M450.957 58.5151H492.828M450.957 58.5151H409.086M488.3 63.7049L492.828 58.5151M488.3 63.7049L483.571 69.1239M488.3 63.7049H531.076M492.828 58.5151H534.699M409.086 58.5151H367.214M409.086 58.5151L415.162 53.5404M534.699 58.5151L531.076 63.7049M415.162 53.5404H374.16M483.571 69.1239L482.355 70.5163L478.629 74.7884M483.571 69.1239H527.293M531.076 63.7049L527.293 69.1239M527.293 69.1239L526.809 69.8184L525.339 71.9246L523.339 74.7884M433.917 74.7884L427.712 80.7147M433.917 74.7884H478.629M433.917 74.7884H389.206M478.629 74.7884L473.457 80.7147M478.629 74.7884H523.339M523.339 74.7884L519.202 80.7147M427.712 80.7147H473.457M427.712 80.7147H381.966M468.041 86.9217L471.456 83.0086L473.457 80.7147M468.041 86.9217L462.362 93.4297M468.041 86.9217H514.869M473.457 80.7147H519.202M381.966 80.7147H336.221M381.966 80.7147L389.206 74.7884M519.202 80.7147L514.869 86.9217M389.206 74.7884H344.495M462.362 93.4297L456.401 100.262M462.362 93.4297H510.327M514.869 86.9217L510.327 93.4297M510.327 93.4297L505.558 100.262M407.244 100.262L399.726 107.441M407.244 100.262H456.401M407.244 100.262H358.088M456.401 100.262L450.136 107.441M456.401 100.262H505.558M505.558 100.262L500.545 107.441M399.726 107.441H450.136M399.726 107.441H349.317M443.543 114.997L450.136 107.441M443.543 114.997L436.596 122.958M443.543 114.997H495.271M450.136 107.441H500.545M349.317 107.441H298.908M349.317 107.441L358.088 100.262M500.545 107.441L495.271 114.997M358.088 100.262H308.931M436.596 122.958L429.266 131.359M436.596 122.958H489.714M495.271 114.997L489.714 122.958M489.714 122.958L483.849 131.359M374.682 131.359L365.386 140.237M374.682 131.359H429.266M374.682 131.359H320.098M429.266 131.359L421.519 140.237M429.266 131.359H483.849M483.849 131.359L477.652 140.237M365.386 140.237H421.519M365.386 140.237H309.253M413.32 149.634L421.519 140.237M413.32 149.634L404.627 159.595M413.32 149.634H471.093M421.519 140.237H477.652M309.253 140.237H253.121M309.253 140.237L320.098 131.359M477.652 140.237L471.093 149.634M320.098 131.359H265.515M404.627 159.595L395.395 170.176M404.627 159.595H464.139M471.093 149.634L464.139 159.595M464.139 159.595L456.753 170.176M334.037 170.176L322.25 181.434M334.037 170.176H395.395M334.037 170.176H272.68M395.395 170.176L385.572 181.434M395.395 170.176H456.753M456.753 170.176L448.894 181.434M322.25 181.434H385.572M322.25 181.434H258.927M375.099 193.436L385.572 181.434M375.099 193.436L363.909 206.26M375.099 193.436H440.516M385.572 181.434H448.894M258.927 181.434H195.605M258.927 181.434L272.68 170.176M448.894 181.434L440.516 193.436M272.68 170.176H211.322M363.909 206.26L351.927 219.992M363.909 206.26H431.564M440.516 193.436L431.564 206.26M431.564 206.26L421.978 219.992M281.875 219.992L266.44 234.733M281.875 219.992H351.927M281.875 219.992H211.824M351.927 219.992L339.064 234.733M351.927 219.992H421.978M421.978 219.992L411.688 234.733M266.44 234.733H339.064M266.44 234.733H193.817M325.221 250.598L339.064 234.733M325.221 250.598L310.28 267.72M325.221 250.598H400.613M339.064 234.733H411.688M193.817 234.733H121.193M193.817 234.733L211.824 219.992M411.688 234.733L400.613 250.598M211.824 219.992H141.772M310.28 267.72L294.106 286.256M310.28 267.72H388.661M400.613 250.598L388.661 267.72M388.661 267.72L375.722 286.256M212.491 286.256L191.412 306.387M212.491 286.256H294.106M212.491 286.256H130.875M294.106 286.256L276.54 306.387M294.106 286.256H375.722M375.722 286.256L361.669 306.387M191.412 306.387H276.54M191.412 306.387H106.283M257.394 328.33L276.54 306.387M257.394 328.33L236.443 352.339M257.394 328.33H346.352M276.54 306.387H361.669M106.283 306.387H21.1542M106.283 306.387L130.875 286.256M361.669 306.387L346.352 328.33M130.875 286.256H49.2604M236.443 352.339L213.422 378.722M236.443 352.339H329.592M346.352 328.33L329.592 352.339M329.592 352.339L311.174 378.722M115.67 378.722L85.1711 407.85M115.67 378.722H213.422M115.67 378.722H17.9173M213.422 378.722L188.007 407.85M213.422 378.722H311.174M311.174 378.722L290.842 407.85M188.007 407.85H85.1711M188.007 407.85H290.842M85.1711 407.85L1.06118 407.849M17.9173 378.722L1.06118 392.521M17.9173 378.722H1.06118M350.489 20.1136L344.121 23.7625M350.489 20.1136H385.658M350.489 20.1136H315.32M391.189 16.5922L396.53 13.1917M391.189 16.5922L385.658 20.1136M391.189 16.5922H425.744M396.53 13.1917H430.491M396.53 13.1917L401.691 9.90643M368.302 9.90643H401.691M368.302 9.90643L370.403 8.70281L373.846 6.72989M368.302 9.90643H334.914M385.658 20.1136L379.927 23.7625M385.658 20.1136H420.828M425.744 16.5922L430.491 13.1917M425.744 16.5922L420.828 20.1136M430.491 13.1917L433.947 10.7172L435.079 9.90643M401.691 9.90643L402.323 9.50308L406.68 6.72989M401.691 9.90643H435.079M420.828 20.1136L415.734 23.7625M468.467 9.90643L472.347 6.72989M468.467 9.90643H435.079M435.079 9.90643L436.759 8.70281L439.513 6.72989M344.121 23.7625H379.927M344.121 23.7625H308.315M373.985 27.5458L379.927 23.7625M373.985 27.5458L367.82 31.4712M373.985 27.5458H410.452M379.927 23.7625H415.734M308.315 23.7625H272.509M308.315 23.7625L315.32 20.1136M415.734 23.7625L410.452 27.5458M315.32 20.1136H280.15M367.82 31.4712L366.242 32.4755L361.418 35.5468M367.82 31.4712H404.971M410.452 27.5458L404.971 31.4712M404.971 31.4712L399.28 35.5468M323.555 35.5468L322.647 36.0677L316.165 39.782M323.555 35.5468H361.418M323.555 35.5468H285.692M361.418 35.5468L354.766 39.782M361.418 35.5468H399.28M399.28 35.5468L398.555 36.0677L393.368 39.782M316.165 39.782H354.766M316.165 39.782H277.563M347.85 44.1856L354.766 39.782M347.85 44.1856L340.653 48.768M347.85 44.1856H387.22M354.766 39.782H393.368M277.563 39.782H238.961M277.563 39.782L285.692 35.5468M393.368 39.782L387.22 44.1856M285.692 35.5468H247.829M340.653 48.768L333.157 53.5404M340.653 48.768H380.823M387.22 44.1856L380.823 48.768M380.823 48.768L374.16 53.5404M292.154 53.5404L283.473 58.5151M292.154 53.5404H333.157M292.154 53.5404H251.151M333.157 53.5404L325.343 58.5151M333.157 53.5404H374.16M374.16 53.5404L367.214 58.5151M283.473 58.5151H325.343M283.473 58.5151H241.601M317.192 63.7049L325.343 58.5151M317.192 63.7049L308.68 69.1239M317.192 63.7049H359.969M325.343 58.5151H367.214M241.601 58.5151H199.73M241.601 58.5151L251.151 53.5404M367.214 58.5151L359.969 63.7049M251.151 53.5404H210.148M308.68 69.1239L299.784 74.7884M308.68 69.1239H352.403M359.969 63.7049L352.403 69.1239M352.403 69.1239L344.495 74.7884M255.073 74.7884L244.73 80.7147M255.073 74.7884H299.784M255.073 74.7884H210.362M299.784 74.7884L290.476 80.7147M299.784 74.7884H344.495M344.495 74.7884L336.221 80.7147M244.73 80.7147H290.476M244.73 80.7147H198.985M280.727 86.9217L290.476 80.7147M280.727 86.9217L270.505 93.4297M280.727 86.9217H327.555M290.476 80.7147H336.221M198.985 80.7147H153.24M198.985 80.7147L210.362 74.7884M336.221 80.7147L327.555 86.9217M210.362 74.7884H165.65M270.505 93.4297L259.775 100.262M270.505 93.4297H318.469M327.555 86.9217L318.469 93.4297M318.469 93.4297L308.931 100.262M210.618 100.262L198.088 107.441M210.618 100.262H259.775M210.618 100.262H161.462M259.775 100.262L248.498 107.441M259.775 100.262H308.931M308.931 100.262L298.908 107.441M198.088 107.441H248.498M198.088 107.441H147.678M236.63 114.997L248.498 107.441M236.63 114.997L224.126 122.958M236.63 114.997H288.359M248.498 107.441H298.908M147.678 107.441H97.2691M147.678 107.441L161.462 100.262M298.908 107.441L288.359 114.997M161.462 100.262H112.305M224.126 122.958L210.931 131.359M224.126 122.958H277.244M288.359 114.997L277.244 122.958M277.244 122.958L265.515 131.359M156.347 131.359L140.855 140.237M156.347 131.359H210.931M156.347 131.359H101.764M210.931 131.359L196.988 140.237M210.931 131.359H265.515M265.515 131.359L253.121 140.237M140.855 140.237H196.988M140.855 140.237H84.7219M182.229 149.634L196.988 140.237M182.229 149.634L166.582 159.595M182.229 149.634H240.002M196.988 140.237H253.121M84.7219 140.237H28.589M84.7219 140.237L101.764 131.359M253.121 140.237L240.002 149.634M101.764 131.359H47.1804M166.582 159.595L149.964 170.176M166.582 159.595H226.094M240.002 149.634L226.094 159.595M226.094 159.595L211.322 170.176M88.6065 170.176L68.9605 181.434M88.6065 170.176H149.964M88.6065 170.176H27.2488M149.964 170.176L132.283 181.434M149.964 170.176H211.322M211.322 170.176L195.605 181.434M68.9605 181.434H132.283M68.9605 181.434H5.6382M113.431 193.436L132.283 181.434M113.431 193.436L93.2895 206.26M113.431 193.436H178.848M132.283 181.434H195.605M5.6382 181.434L27.2488 170.176M5.6382 181.434H1.06118M5.6382 181.434L1.06118 183.818M195.605 181.434L178.848 193.436M27.2488 170.176H1.06118M93.2895 206.26L71.7212 219.992M93.2895 206.26H160.944M178.848 193.436L160.944 206.26M160.944 206.26L141.772 219.992M1.66955 219.992H71.7212M1.66955 219.992H1.06118M1.66955 219.992L1.06118 220.34M71.7212 219.992L48.5681 234.733M71.7212 219.992H141.772M141.772 219.992L121.193 234.733M23.6505 250.598L48.5681 234.733M23.6505 250.598H99.043M23.6505 250.598H1.06118M23.6505 250.598L1.06118 264.98M48.5681 234.733H121.193M48.5681 234.733H1.06118M121.193 234.733L99.043 250.598M99.043 250.598L75.1384 267.72M75.1384 267.72L49.2604 286.256M75.1384 267.72H1.06118M49.2604 286.256L21.1542 306.387M49.2604 286.256H1.06118M21.1542 306.387H1.06118M21.1542 306.387L1.06118 320.779M209.811 20.1136L200.896 23.7625M209.811 20.1136H244.981M209.811 20.1136H174.642M252.969 16.5922L260.684 13.1917M252.969 16.5922L244.981 20.1136M252.969 16.5922H287.524M260.684 13.1917H294.645M260.684 13.1917L268.138 9.90643M234.75 9.90643H268.138M234.75 9.90643L242.51 6.72989M234.75 9.90643H201.362M244.981 20.1136L236.703 23.7625M244.981 20.1136H280.15M287.524 16.5922L294.645 13.1917M287.524 16.5922L280.15 20.1136M294.645 13.1917L301.526 9.90643M268.138 9.90643L269.051 9.50308L275.344 6.72989M268.138 9.90643H301.526M280.15 20.1136L272.509 23.7625M334.914 9.90643L341.011 6.72989M334.914 9.90643H301.526M301.526 9.90643L302.369 9.50308L308.178 6.72989M200.896 23.7625H236.703M200.896 23.7625H165.09M228.119 27.5458L236.703 23.7625M228.119 27.5458L219.213 31.4712M228.119 27.5458H264.586M236.703 23.7625H272.509M165.09 23.7625H129.284M165.09 23.7625L174.642 20.1136M272.509 23.7625L264.586 27.5458M174.642 20.1136H139.472M219.213 31.4712L209.966 35.5468M219.213 31.4712H256.365M264.586 27.5458L263.575 28.0281L256.365 31.4712M256.365 31.4712L247.829 35.5468M172.104 35.5468L161.757 39.782M172.104 35.5468H209.966M172.104 35.5468H134.241M209.966 35.5468L200.359 39.782M209.966 35.5468H247.829M247.829 35.5468L238.961 39.782M161.757 39.782H200.359M161.757 39.782H123.155M190.369 44.1856L200.359 39.782M190.369 44.1856L179.972 48.768M190.369 44.1856H229.739M200.359 39.782H238.961M123.155 39.782H84.5532M123.155 39.782L134.241 35.5468M238.961 39.782L229.739 44.1856M134.241 35.5468H96.3781M179.972 48.768L169.145 53.5404M179.972 48.768H220.142M229.739 44.1856L220.142 48.768M220.142 48.768L210.148 53.5404M128.142 53.5404L115.988 58.5151M128.142 53.5404H169.145M128.142 53.5404H87.1386M169.145 53.5404L157.859 58.5151M169.145 53.5404H210.148M210.148 53.5404L199.73 58.5151M115.988 58.5151H157.859M115.988 58.5151H74.1167M146.085 63.7049L157.859 58.5151M146.085 63.7049L133.79 69.1239M146.085 63.7049H188.862M157.859 58.5151H199.73M74.1167 58.5151H32.2458M74.1167 58.5151L87.1386 53.5404M199.73 58.5151L188.862 63.7049M87.1386 53.5404H46.136M133.79 69.1239L120.939 74.7884M133.79 69.1239H177.513M188.862 63.7049L177.513 69.1239M177.513 69.1239L165.65 74.7884M76.2281 74.7884L61.7492 80.7147M76.2281 74.7884H120.939M76.2281 74.7884H31.5176M120.939 74.7884L107.495 80.7147M120.939 74.7884H165.65M165.65 74.7884L153.24 80.7147M61.7492 80.7147H107.495M93.4122 86.9217L107.495 80.7147M93.4122 86.9217L78.6477 93.4297M93.4122 86.9217H140.241M107.495 80.7147H153.24M153.24 80.7147L140.241 86.9217M31.5176 74.7884H1.06118M78.6477 93.4297L63.1485 100.262M78.6477 93.4297H126.612M140.241 86.9217L126.612 93.4297M126.612 93.4297L112.305 100.262M13.9918 100.262H63.1485M13.9918 100.262H1.06118M13.9918 100.262L1.06118 105.554M63.1485 100.262L46.8591 107.441M63.1485 100.262H112.305M112.305 100.262L97.2691 107.441M29.7181 114.997L46.8591 107.441M29.7181 114.997L11.6562 122.958M29.7181 114.997H81.4463M29.7181 114.997H1.06118M46.8591 107.441H97.2691M46.8591 107.441H1.06118M97.2691 107.441L81.4463 114.997M0.918766 105.612L1.06118 105.554M11.6562 122.958H64.7735M11.6562 122.958H1.06118M11.6562 122.958L1.06118 127.628M81.4463 114.997L64.7735 122.958M64.7735 122.958L47.1804 131.359M47.1804 131.359L28.589 140.237M47.1804 131.359H1.06118M8.91083 149.634L28.589 140.237M8.91083 149.634H1.06118M8.91083 149.634L1.06118 153.382M28.589 140.237H1.06118M69.1336 20.1136L57.6717 23.7625M69.1336 20.1136H104.303M69.1336 20.1136H33.9635M114.75 16.5922L124.838 13.1917M114.75 16.5922L104.303 20.1136M114.75 16.5922H149.305M124.838 13.1917H158.799M124.838 13.1917L134.585 9.90643M101.197 9.90643H134.585M101.197 9.90643L111.175 6.72989M101.197 9.90643H67.8088M104.303 20.1136L93.4779 23.7625M104.303 20.1136H139.472M149.305 16.5922L158.799 13.1917M149.305 16.5922L139.472 20.1136M158.799 13.1917L167.973 9.90643M134.585 9.90643H167.973M134.585 9.90643L144.009 6.72989M139.472 20.1136L129.284 23.7625M201.362 9.90643L209.677 6.72989M201.362 9.90643H167.973M167.973 9.90643L176.843 6.72989M57.6717 23.7625H93.4779M57.6717 23.7625H21.8655M82.2534 27.5458L93.4779 23.7625M82.2534 27.5458L70.6074 31.4712M82.2534 27.5458H118.72M93.4779 23.7625H129.284M21.8655 23.7625L33.9635 20.1136M21.8655 23.7625H1.06118M129.284 23.7625L118.72 27.5458M33.9635 20.1136H1.06118M70.6074 31.4712L58.5152 35.5468M70.6074 31.4712H107.759M118.72 27.5458L107.759 31.4712M107.759 31.4712L96.3781 35.5468M20.6524 35.5468L7.34937 39.782M20.6524 35.5468H58.5152M20.6524 35.5468H1.06118M58.5152 35.5468L45.9513 39.782M58.5152 35.5468H96.3781M96.3781 35.5468L84.5532 39.782M32.887 44.1856L45.9513 39.782M32.887 44.1856L19.2918 48.768M32.887 44.1856H72.2572M32.887 44.1856H1.06118M45.9513 39.782H7.34937M45.9513 39.782H84.5532M7.34937 39.782L1.06118 41.7836M7.34937 39.782H1.06118M84.5532 39.782L72.2572 44.1856M19.2918 48.768L5.1328 53.5404M19.2918 48.768H59.4618M19.2918 48.768H1.06118M72.2572 44.1856L59.4618 48.768M59.4618 48.768L46.136 53.5404M5.1328 53.5404H46.136M5.1328 53.5404L1.06118 54.9126M5.1328 53.5404H1.06118M46.136 53.5404L32.2458 58.5151M17.7545 63.7049L32.2458 58.5151M17.7545 63.7049L2.62264 69.1239M17.7545 63.7049H1.06118M32.2458 58.5151H1.06118M0.842079 58.5151H1.06118M2.62264 69.1239H1.06118M2.62264 69.1239L1.06118 69.6831M0.683594 69.8184L1.06118 69.6831M11.085 16.5922L22.953 13.1917M11.085 16.5922H1.06118M11.085 16.5922L1.06118 19.4639M22.953 13.1917L34.4207 9.90643M22.953 13.1917H1.06118M67.8088 9.90643L78.3409 6.72989M67.8088 9.90643H34.4207M34.4207 9.90643L45.5072 6.72989M34.4207 9.90643H1.06118M1161.86 6.72989H1194.69M1161.86 6.72989H1129.02M1186.65 3.65738L1188.63 4.41616L1194.69 6.72989M1186.65 3.65738H1218.95M1194.69 6.72989H1227.52M1218.95 3.65738L1221.06 4.41616L1222.13 4.7973L1227.52 6.72989M1227.52 6.72989H1260.36M1260.36 6.72989H1293.19M1129.02 6.72989H1096.19M1293.19 6.72989H1326.03M1326.03 6.72989L1315.84 3.65738M1326.03 6.72989H1358.86M1315.84 3.65738H1348.14M1030.52 6.72989H1063.36M1030.52 6.72989H997.688M1057.46 3.65738L1058.91 4.41616L1059.65 4.7973L1063.36 6.72989M1057.46 3.65738H1089.75M1063.36 6.72989H1096.19M1089.75 3.65738L1096.19 6.72989M997.688 6.72989H964.854M899.187 6.72989H932.02M899.187 6.72989H866.353M928.266 3.65738L928.729 4.0356L929.193 4.41616L929.66 4.7973L932.02 6.72989M928.266 3.65738H960.564M932.02 6.72989H964.854M960.564 3.65738L964.854 6.72989M866.353 6.72989H833.518M767.851 6.72989H800.685M767.851 6.72989H735.017M799.077 3.65738L800.685 6.72989M799.077 3.65738H831.374M800.685 6.72989H833.518M831.374 3.65738L831.639 4.0356L831.904 4.41616L832.17 4.7973L833.518 6.72989M735.017 6.72989H702.184M636.516 6.72989H669.35M636.516 6.72989H603.683M669.886 3.65738L669.35 6.72989M669.886 3.65738H702.184M669.35 6.72989H702.184M702.184 3.65738V6.72989M603.683 6.72989H570.848M505.181 6.72989H538.014M505.181 6.72989H472.347M540.695 3.65738L540.034 4.41616L538.693 5.95183L538.014 6.72989M540.695 3.65738H572.993M538.014 6.72989H570.848M572.993 3.65738L572.729 4.0356L572.464 4.41616L572.197 4.7973L570.848 6.72989M472.347 6.72989H439.513M373.846 6.72989H406.68M373.846 6.72989H341.011M411.506 3.65738L410.314 4.41616L409.714 4.7973L406.68 6.72989M411.506 3.65738H443.803M406.68 6.72989H439.513M443.803 3.65738L443.274 4.0356L439.513 6.72989M341.011 6.72989H308.178M242.51 6.72989H275.344M242.51 6.72989H209.677M282.315 3.65738L280.594 4.41616L279.727 4.7973L275.344 6.72989M282.315 3.65738H314.613M275.344 6.72989H308.178M314.613 3.65738L313.819 4.0356L308.178 6.72989M209.677 6.72989H176.843M111.175 6.72989H144.009M111.175 6.72989H78.3409M153.124 3.65738L144.009 6.72989M153.124 3.65738H185.422M144.009 6.72989H176.843M185.422 3.65738L183.304 4.41616L182.238 4.7973L176.843 6.72989M78.3409 6.72989H45.5072M23.9346 3.65738L12.6735 6.72989M23.9346 3.65738H56.2322M23.9346 3.65738H1.06118M12.6735 6.72989H45.5072M12.6735 6.72989L1.06118 9.89866M12.6735 6.72989H1.06118M56.2322 3.65738L53.584 4.41616L45.5072 6.72989M1348.14 3.65738L1350.78 4.41616L1358.86 6.72989M1358.86 6.72989H1391.69M1391.69 6.72989L1403.31 9.89867M1391.69 6.72989H1403.31M1403.31 153.382V149.634M1403.31 153.382V159.595M1403.31 149.634V140.237M1403.31 159.595V161.452V170.176M1403.31 170.176V181.434M1403.31 80.7147V74.7884M1403.31 80.7147V86.4228M1403.31 3.65738V6.72989M1403.31 6.72989V9.89867M1403.31 9.89867L1403.33 9.90643H1403.31M1403.31 9.89867V9.90643M1403.31 9.90643V13.1917M1403.31 13.1917V16.5922M1403.31 16.5922V19.4639M1403.31 19.4639V20.1136M1403.31 20.1136V23.7625M1403.31 23.7625V27.5458M1403.31 27.5458V30.0361M1403.31 30.0361V31.4712M1403.31 31.4712V35.5468M1403.31 35.5468V39.782M1403.31 39.782V41.7836M1403.31 41.7836V44.1856M1403.31 44.1856V48.768M1403.31 48.768V53.5404M1403.31 53.5404V54.9126M1403.31 54.9126V58.5151M1403.31 58.5151V63.7049M1403.31 63.7049V69.1239M1403.31 69.1239V69.6831M1403.31 69.6831V74.7884M1403.31 86.9217V93.4297M1403.31 86.9217V86.4228M1403.31 93.4297V100.262M1403.31 100.262V105.554M1403.31 105.554V107.441M1403.31 107.441V114.997M1403.31 114.997V122.958M1403.31 122.958V127.628M1403.31 127.628V131.359M1403.31 131.359V140.237M1403.31 181.434V183.818M1403.31 183.818V193.436M1403.31 193.436V206.26M1403.31 206.26V219.992M1403.31 219.992V220.34M1403.31 220.34V234.733M1403.31 234.733V250.598M1403.31 250.598V264.98M1403.31 264.98V267.72M1403.31 267.72V286.256M1403.31 286.256V306.387M1403.31 306.387V320.779M1403.31 320.779V328.33M1403.31 328.33V352.339M1403.31 352.339V378.722M1403.31 378.722V392.521M1403.31 392.521V407.849M1403.31 407.849V407.953H1.06118V407.849M1.06118 86.9217V93.4297M1.06118 86.9217V86.4228M1.06118 86.4228V80.7147M1.06118 80.7147V74.7884M1.06118 74.7884V69.6831M1.06118 69.6831V69.1239M1.06118 69.1239V63.7049M1.06118 63.7049V58.5151M1.06118 58.5151V54.9126M1.06118 54.9126V53.5404M1.06118 53.5404V48.768M1.06118 48.768V44.1856M1.06118 44.1856V41.7836M1.06118 41.7836V39.782M1.06118 39.782V35.5468M1.06118 35.5468V31.4712M1.06118 31.4712V30.0361M1.06118 30.0361V27.5458M1.06118 27.5458V23.7625M1.06118 23.7625V20.1136M1.06118 20.1136V19.4639M1.06118 19.4639V16.5922M1.06118 16.5922V13.1917M1.06118 13.1917V9.90643M1.06118 9.90643H1.0327L1.06118 9.89866M1.06118 9.90643V9.89866M1.06118 9.89866V6.72989M1.06118 6.72989V3.65738M1.06118 407.849V392.521M1.06118 392.521V378.722M1.06118 378.722V352.339M1.06118 352.339V328.33M1.06118 328.33V320.779M1.06118 320.779V306.387M1.06118 306.387V286.256M1.06118 286.256V267.72M1.06118 267.72V264.98M1.06118 264.98V250.598M1.06118 250.598V234.733M1.06118 234.733V220.34M1.06118 220.34V219.992M1.06118 219.992V206.26M1.06118 206.26V193.436M1.06118 193.436V183.818M1.06118 183.818V181.434M1.06118 181.434V170.176M1.06118 170.176V159.595M1.06118 159.595V153.382M1.06118 153.382V149.634M1.06118 149.634V140.237M1.06118 140.237V131.359M1.06118 131.359V127.628M1.06118 127.628V122.958M1.06118 122.958V114.997M1.06118 114.997V107.441M1.06118 107.441V105.554M1.06118 105.554V100.262M1.06118 100.262V93.4297" stroke="url(#paint0_radial_6269_13662)" stroke-opacity="0.2" stroke-width="1.36654" stroke-miterlimit="10" stroke-linecap="round" stroke-linejoin="round"/>
<defs>
<radialGradient id="paint0_radial_6269_13662" cx="0" cy="0" r="1" gradientUnits="userSpaceOnUse" gradientTransform="translate(702.184 392.942) rotate(-90) scale(637.528 2196.21)">
<stop stop-color="white" stop-opacity="0.3"/>
<stop offset="0.489074" stop-color="#CED2DF" stop-opacity="0"/>
</radialGradient>
</defs>
</svg>
